<svg xmlns="http://www.w3.org/2000/svg" width="120.272" height="95.742" viewBox="0 0 120.272 95.742"><defs><style>.a{fill:#b9b9b9;}</style></defs><g transform="translate(0 4.001)"><path class="a" d="M117.923,34.224a2.349,2.349,0,0,0-2.349,2.349v8.371a8.723,8.723,0,0,1-8.713,8.713H93.471a2.35,2.35,0,0,0-1.661.687L75.577,70.578V56.006a2.349,2.349,0,0,0-2.349-2.349H39.6a8.723,8.723,0,0,1-8.713-8.713V9.41A8.723,8.723,0,0,1,39.6.7h67.265a8.723,8.723,0,0,1,8.713,8.712V17.78a2.349,2.349,0,1,0,4.7,0V9.41A13.426,13.426,0,0,0,106.861-4H39.6A13.426,13.426,0,0,0,26.184,9.41V39.589H9.087A9.1,9.1,0,0,0,0,48.676V70.322A9.1,9.1,0,0,0,9.087,79.41h7.184L27.914,91.053a2.35,2.35,0,0,0,4.011-1.661V79.41H50.064a9.1,9.1,0,0,0,9.087-9.087V58.355H70.879V76.249a2.349,2.349,0,0,0,4.01,1.661L94.444,58.355h12.417a13.426,13.426,0,0,0,13.411-13.411V36.573a2.35,2.35,0,0,0-2.349-2.349Zm-63.469,36.1a4.394,4.394,0,0,1-4.39,4.389H29.576a2.349,2.349,0,0,0-2.349,2.349v6.661L18.905,75.4a2.35,2.35,0,0,0-1.661-.689H9.087A4.393,4.393,0,0,1,4.7,70.322V48.676a4.394,4.394,0,0,1,4.389-4.389h17.1v.658A13.426,13.426,0,0,0,39.6,58.355H54.454Zm0,0" transform="translate(0)"/><path class="a" d="M303.449,77.914H257.642a2.349,2.349,0,1,0,0,4.7h45.807a2.349,2.349,0,0,0,0-4.7Zm0,0" transform="translate(-207.317 -66.521)"/><path class="a" d="M305.8,147.767a2.349,2.349,0,0,0-2.349-2.349H257.642a2.349,2.349,0,1,0,0,4.7h45.807A2.349,2.349,0,0,0,305.8,147.767Zm0,0" transform="translate(-207.317 -121.339)"/><path class="a" d="M257.642,212.918a2.349,2.349,0,1,0,0,4.7h26.427a2.349,2.349,0,0,0,0-4.7Zm0,0" transform="translate(-207.317 -176.154)"/><path class="a" d="M617.349,149.4a2.349,2.349,0,1,0,2.349,2.349A2.354,2.354,0,0,0,617.349,149.4Zm0,0" transform="translate(-499.426 -124.574)"/></g></svg>