<svg xmlns="http://www.w3.org/2000/svg" width="20.568" height="20.568" viewBox="0 0 20.568 20.568"><defs><style>.a{fill:#8d8d8d;}</style></defs><g transform="translate(0 -0.002)"><path class="a" d="M.716,6.218A.716.716,0,0,0,1.433,5.5V2.448L6.046,7.061A.716.716,0,0,0,7.059,6.047L2.445,1.435H5.5A.716.716,0,1,0,5.5,0H.716A.716.716,0,0,0,0,.718V5.5A.716.716,0,0,0,.716,6.218Z"/><path class="a" d="M144.449,138.947a.716.716,0,0,0-.716.716v3.054l-4.756-4.756a.716.716,0,0,0-1.013,1.013l4.756,4.756h-3.054a.716.716,0,1,0,0,1.433h4.784a.716.716,0,0,0,.716-.716v-4.784A.716.716,0,0,0,144.449,138.947Z" transform="translate(-124.597 -124.594)"/><path class="a" d="M6.193,137.962l-4.755,4.756v-3.054a.716.716,0,0,0-1.433,0v4.784a.716.716,0,0,0,.716.716H5.5a.716.716,0,0,0,0-1.433H2.451l4.755-4.756a.716.716,0,0,0-1.013-1.013Z" transform="translate(-0.005 -124.594)"/><path class="a" d="M145.8,0h-4.784a.716.716,0,0,0,0,1.433h3.054l-4.613,4.613a.716.716,0,0,0,1.013,1.013l4.613-4.613V5.5a.716.716,0,0,0,1.433,0V.718A.716.716,0,0,0,145.8,0Z" transform="translate(-125.949 0)"/></g></svg>