<svg xmlns="http://www.w3.org/2000/svg" width="13.699" height="9.341" viewBox="0 0 13.699 9.341"><defs><style>.a{fill:#8d8d8d;}</style></defs><g transform="translate(0 -74.667)"><g transform="translate(0 74.667)"><g transform="translate(0 0)"><path class="a" d="M172.351,170.667a1.684,1.684,0,1,0,1.684,1.684A1.685,1.685,0,0,0,172.351,170.667Z" transform="translate(-165.501 -167.681)"/><path class="a" d="M6.85,74.667A7.365,7.365,0,0,0,0,79.337a7.358,7.358,0,0,0,13.7,0A7.361,7.361,0,0,0,6.85,74.667Zm0,7.784a3.114,3.114,0,1,1,3.114-3.113A3.115,3.115,0,0,1,6.85,82.451Z" transform="translate(0 -74.667)"/></g></g></g></svg>