<svg xmlns="http://www.w3.org/2000/svg" width="15.257" height="15.639" viewBox="0 0 15.257 15.639"><defs><style>.a{fill:#8782d9;}</style></defs><path class="a" d="M14.6,0H.656A.655.655,0,0,0,.072.355a.664.664,0,0,0,.052.691l5.108,7.2.005.007a1.459,1.459,0,0,1,.287.866v5.866a.652.652,0,0,0,.652.656.672.672,0,0,0,.257-.052L9.3,14.492a.622.622,0,0,0,.428-.613V9.115a1.46,1.46,0,0,1,.286-.866l.005-.007,5.108-7.2a.664.664,0,0,0,.052-.691A.655.655,0,0,0,14.6,0Zm0,0" transform="translate(0.001 0)"/></svg>