<svg xmlns="http://www.w3.org/2000/svg" width="40.303" height="38.716" viewBox="0 0 40.303 38.716"><defs><style>.a{fill:#847deb;}.b{fill:#fdfdfd;font-size:10px;font-family:Roboto-Bold, Roboto;font-weight:700;letter-spacing:0.06em;}.c{fill:none;stroke:#fff;stroke-width:10px;}</style></defs><g transform="translate(8.102 1.649)"><g transform="translate(-0.956 -1.649)"><path class="a" d="M16.739,244.331a4.087,4.087,0,0,1-2.565-.956L9.436,239.2a2.086,2.086,0,0,0-2.7-.13L0,244.026v3.217a1.565,1.565,0,0,0,1.475,1.65c.044,0,.089,0,.134,0H25.476a1.83,1.83,0,0,0,1.913-1.652V238.81l-8.564,4.956A3.956,3.956,0,0,1,16.739,244.331Z" transform="translate(0 -220.215)"/><circle class="a" cx="1.913" cy="1.913" r="1.913" transform="translate(14.909 11.444)"/><path class="a" d="M84.5,29.91a1.657,1.657,0,0,0-1.21-.673L58.874,26.41a1.785,1.785,0,0,0-2.016,1.526l-.4,3.5H77.872a3.856,3.856,0,0,1,3.764,3.724V51c0-.09.4-.179.582-.359a1.526,1.526,0,0,0,.582-1.211l2.106-18.216A1.752,1.752,0,0,0,84.5,29.91Z" transform="translate(-51.758 -26.403)"/><path class="a" d="M25.5,105.9H1.638A1.816,1.816,0,0,0,.03,107.864v13.021L5.768,116.5a3.684,3.684,0,0,1,4.825.228l4.782,4.386a2.132,2.132,0,0,0,2.565.228l9.477-5.8v-7.675A2.05,2.05,0,0,0,25.5,105.9Zm-9.085,10.554a3.843,3.843,0,0,1,0-7.676,3.843,3.843,0,0,1,0,7.676Z" transform="translate(-0.027 -99.284)"/></g><rect class="a" width="29" height="22" rx="2" transform="translate(-1.476 5.242)"/><text class="b" transform="translate(4.524 19.242)"><tspan x="0" y="0">GIF</tspan></text><line class="c" x2="16.71" y2="8.73" transform="translate(-5.787 23.906)"/></g></svg>