<svg xmlns="http://www.w3.org/2000/svg" width="29.25" height="25.272" viewBox="0 0 29.25 25.272"><defs><style>.a{fill:#827cdf;}</style></defs><g transform="translate(0 1.649)"><g transform="translate(0 -1.649)"><path class="a" d="M14.926,243.715a3.644,3.644,0,0,1-2.287-.853L8.414,239.14a1.861,1.861,0,0,0-2.4-.116L0,243.443v2.868a1.4,1.4,0,0,0,1.315,1.471c.04,0,.079,0,.119,0H22.718a1.632,1.632,0,0,0,1.706-1.473v-7.52l-7.636,4.419A3.527,3.527,0,0,1,14.926,243.715Z" transform="translate(0 -222.513)"/><circle class="a" cx="1.706" cy="1.706" r="1.706" transform="translate(13.133 10.065)"/><path class="a" d="M81.153,29.487a1.46,1.46,0,0,0-1.065-.592l-21.5-2.486a1.571,1.571,0,0,0-1.775,1.342l-.355,3.077H75.314A3.393,3.393,0,0,1,78.628,34.1V48.031c0-.079.355-.158.513-.316a1.341,1.341,0,0,0,.513-1.065l1.854-16.019A1.539,1.539,0,0,0,81.153,29.487Z" transform="translate(-52.266 -26.403)"/><path class="a" d="M22.746,105.9H1.464A1.6,1.6,0,0,0,.03,107.613v11.361l5.117-3.827a3.339,3.339,0,0,1,4.3.2l4.264,3.827a1.934,1.934,0,0,0,2.287.2l8.451-5.062v-6.7A1.807,1.807,0,0,0,22.746,105.9Zm-8.1,9.208a3.35,3.35,0,1,1,3.256-3.348A3.3,3.3,0,0,1,14.644,115.107Z" transform="translate(-0.028 -100.001)"/></g></g></svg>