<svg xmlns="http://www.w3.org/2000/svg" width="38.445" height="28.348" viewBox="0 0 38.445 28.348">
  <g id="Group_2540" data-name="Group 2540" transform="translate(9099.15 -19274.036)">
    <path id="Path_1166" data-name="Path 1166" d="M786.19,667.663c11.891.019,23.779,0,35.67.009a23.612,23.612,0,0,1,2.775.059c-2.436,9.414-4.7,18.873-7.178,28.278-7.318-.031-14.632.019-21.95-.028q-4.448-13.338-8.851-26.694a11.5,11.5,0,0,1-.467-1.624m3.7,2.7c2.492,7.629,5.093,15.223,7.532,22.867,5.98.084,11.966.012,17.945.037,1.957-7.622,3.855-15.26,5.781-22.892C810.725,670.36,800.306,670.385,789.886,670.36Z" transform="translate(-9885.34 18606.375)" fill="#383838"/>
  </g>
</svg>
