<svg xmlns="http://www.w3.org/2000/svg" width="38.041" height="19.847" viewBox="0 0 38.041 19.847">
  <g id="Group_2564" data-name="Group 2564" transform="translate(-89.952 -555.839)">
    <path id="Path_1205" data-name="Path 1205" d="M1012.09,446.073a19.073,19.073,0,0,1,24.6,18.421c-.221.193-.432.392-.644.588-2.977-.012-5.955.028-8.929-.016a4.1,4.1,0,0,0-.681-.955,8.852,8.852,0,0,0-7.454-8.515,8.737,8.737,0,0,0-10.021,8.242,1.086,1.086,0,0,1-1.21,1.244c-2.6.006-5.208,0-7.809.006a2.344,2.344,0,0,1-1.251-.327c-.573-8.338,5.466-16.368,13.4-18.689m-6.723,5.731a17.446,17.446,0,0,0-5.233,11.717c2.414.034,4.832.012,7.249.012a10.279,10.279,0,0,1,17.961-6.095,10.8,10.8,0,0,1,2.641,6.095q3.57.009,7.143,0a17.421,17.421,0,0,0-6.664-12.986,17.382,17.382,0,0,0-23.1,1.257Z" transform="translate(-908.697 110.59)" fill="#383838"/>
  </g>
</svg>
