<svg xmlns="http://www.w3.org/2000/svg" width="40.815" height="30.832" viewBox="0 0 40.815 30.832">
  <g id="Group_2527" data-name="Group 2527" transform="translate(9100.189 -19201.632)">
    <path id="Path_1157" data-name="Path 1157" d="M785.328,437.143a8.051,8.051,0,0,1,5.015-2.2q16.651.014,33.3,0c.019,6.219,0,12.439.009,18.658a3.922,3.922,0,0,1-1.842,3.2c-2.181,1.658-4.841,2.467-7.283,3.64A129.037,129.037,0,0,1,801.5,465.7c-5.071.149-10.161.019-15.239.065a3.459,3.459,0,0,1-3.407-3.419c-.028-6.95,0-13.9-.012-20.854-.059-1.792,1.2-3.257,2.483-4.353m.669,3.2c-.526.56-.342,1.381-.376,2.078.059,6.823-.1,13.655.081,20.475a6.511,6.511,0,0,0,1.5.168c4.362-.016,8.727,0,13.092-.006a15.918,15.918,0,0,0,4.378-1.36c3.964-1.6,7.859-3.36,11.77-5.087a15.075,15.075,0,0,0,3.954-2.175c.233-.24.551-.495.545-.862.047-5.258-.041-10.519.043-15.777-1.823-.165-3.656-.031-5.482-.075-8.612.022-17.224-.04-25.832.034A7.608,7.608,0,0,0,786,440.347Z" transform="translate(-9883.033 18766.686)" fill="#383838"/>
  </g>
</svg>
