<svg xmlns="http://www.w3.org/2000/svg" width="41.423" height="41.386" viewBox="0 0 41.423 41.386">
  <g id="Group_2558" data-name="Group 2558" transform="translate(9311.165 -19407.835)">
    <path id="Path_1178" data-name="Path 1178" d="M122.031,1097.992a20.713,20.713,0,0,1,22.475,12.345,20.542,20.542,0,0,1,.706,14.215,20.706,20.706,0,1,1-23.182-26.56m-7.9,6.4c3.793,3.867,7.663,7.657,11.471,11.505,2.109-1.957,4.085-4.06,6.142-6.073,1.686-1.752,3.513-3.385,5.112-5.208a17.169,17.169,0,0,0-10.329-4.144,18.1,18.1,0,0,0-12.4,3.92m-6.639,13.024a18.044,18.044,0,0,0,4.1,12.5c4.1-3.957,8.055-8.067,12.134-12.046-3.889-3.846-7.713-7.753-11.62-11.574a18.126,18.126,0,0,0-4.614,11.122m31.364-10.892c-3.705,3.839-7.554,7.535-11.281,11.356,2.414,2.371,4.791,4.776,7.187,7.165,1.609,1.5,3.033,3.22,4.754,4.586a18.032,18.032,0,0,0,3.877-10.7,17.367,17.367,0,0,0-4.536-12.4m-25.328,25.391a18.088,18.088,0,0,0,23.984-.177c-3.852-4.063-7.909-7.943-11.854-11.925C121.583,1123.806,117.56,1127.866,113.531,1131.914Z" transform="translate(-9415.898 18310.117)" fill="#383838"/>
  </g>
</svg>
