<svg xmlns="http://www.w3.org/2000/svg" width="40.287" height="27.716" viewBox="0 0 40.287 27.716">
  <g id="Group_2530" data-name="Group 2530" transform="translate(9170.191 -19201.486)">
    <path id="Path_1156" data-name="Path 1156" d="M557.85,434.5c13.425-.044,26.85-.022,40.275-.012,0,7.722.037,15.444-.019,23.163-3.88,0-7.756-.012-11.633.006a4.26,4.26,0,0,0-1.867.591c-2.343,1.195-4.5,2.791-7.028,3.6a12.537,12.537,0,0,1-3.886.339c-3.606-.028-7.218.053-10.824-.04-2.209-.1-4.773-1.428-5-3.861-.037-7.927,0-15.855-.019-23.782m2.8,2.669c-.047,7.041-.065,14.084.006,21.119.619,1.008,1.991,1.17,3.083,1.2,4.054-.037,8.114.047,12.165-.044,3.662-.716,6.35-3.8,10.015-4.493,3.167-.14,6.344.034,9.514-.087-.019-5.893,0-11.785-.006-17.681C583.838,437.165,572.246,437.193,560.653,437.168Z" transform="translate(-9728.041 18767.014)" fill="#383838"/>
  </g>
</svg>
