<svg xmlns="http://www.w3.org/2000/svg" width="39.529" height="39.904" viewBox="0 0 39.529 39.904">
  <g id="Group_2535" data-name="Group 2535" transform="translate(9093.694 -19613.97)">
    <path id="Path_1163" data-name="Path 1163" d="M1690.848,644.963c8.612-.022,17.221,0,25.833-.009a10.193,10.193,0,0,1,6.658,2.959,22.682,22.682,0,0,1,7.028,16.315,27.153,27.153,0,0,1-5.98,16.44c-1.879,2.169-4.421,4.163-7.42,4.181q-13.067.019-26.128.006c.009-13.3-.012-26.595.009-39.892m2.707,2.785c-.025,11.443.025,22.886-.025,34.329,7.607.187,15.233.019,22.849.084,2.595.137,4.679-1.752,6.226-3.615a24.255,24.255,0,0,0,4.741-11.132,19.871,19.871,0,0,0-5.292-16.965c-1.447-1.412-3.267-2.8-5.392-2.71C1708.958,647.751,1701.255,647.729,1693.554,647.747Z" transform="translate(-10784.531 18969.018)" fill="#383838"/>
  </g>
</svg>
