<svg xmlns="http://www.w3.org/2000/svg" width="39.796" height="28.427" viewBox="0 0 39.796 28.427">
  <g id="Group_2525" data-name="Group 2525" transform="translate(9170.188 -19133.521)">
    <path id="Path_1148" data-name="Path 1148" d="M557.86,230.123c6.689-4.623,13.213-9.511,19.918-14.106,6.639,4.717,13.3,9.418,19.878,14.218q-9.95,7.112-19.909,14.209-8.116-5.763-16.2-11.558a40.17,40.17,0,0,1-3.684-2.763m4.651.009a7.089,7.089,0,0,0,.787.669c4.829,3.425,9.639,6.879,14.464,10.311,5.071-3.653,10.171-7.268,15.257-10.9-5.106-3.578-10.118-7.3-15.257-10.821C572.6,222.837,567.663,226.654,562.511,230.133Z" transform="translate(-9728.048 18917.504)" fill="#383838"/>
  </g>
</svg>
