<svg xmlns="http://www.w3.org/2000/svg" width="35.032" height="32.899" viewBox="0 0 35.032 32.899">
  <g id="Group_2543" data-name="Group 2543" transform="translate(9238.477 -19545.316)">
    <path id="Path_1154" data-name="Path 1154" d="M1228.42,427.316a9.87,9.87,0,0,1,7.112-3.012c3.015.236,5.522,2.268,7.364,4.53,1.7-1.674,3.45-3.5,5.815-4.206a8.18,8.18,0,0,1,7.15,1.341,9.775,9.775,0,0,1,4.558,7.224c.031.831.317,1.833-.339,2.5-5.392,7.038-10.647,14.181-16.206,21.085-.286.532-.933.352-1.419.4-5.656-6.9-10.9-14.128-16.343-21.194-.274-.386-.656-.762-.635-1.266a9.9,9.9,0,0,1,2.943-7.408m21.421-.989c-2.663.573-4.5,2.769-6.207,4.726-.545-.059-1.27.233-1.6-.352-1.829-2.14-4.085-4.514-7.125-4.489-4.048.352-7.71,4.051-7.486,8.223,1.313,1.988,2.865,3.824,4.278,5.749,3.758,4.875,7.383,9.863,11.294,14.616,5.3-6.686,10.451-13.509,15.559-20.344a7.806,7.806,0,0,0-3.142-6.456C1253.844,426.815,1251.85,425.863,1249.84,426.326Z" transform="translate(-10463.952 19121.031)" fill="#383838"/>
  </g>
</svg>
