<svg xmlns="http://www.w3.org/2000/svg" width="40.188" height="30.944" viewBox="0 0 40.188 30.944">
  <g id="Group_2539" data-name="Group 2539" transform="translate(9164.456 -19688.935)">
    <path id="Path_1174" data-name="Path 1174" d="M1469.158,885.989c7.965-.168,15.954-.025,23.931-.072,1.531.065,3.142-.243,4.6.4a7.971,7.971,0,0,1,4.026,4.368,26.171,26.171,0,0,1,1.867,10.174,28.859,28.859,0,0,1-1.976,10.976c-1.076,2.676-3.475,5.345-6.633,4.972q-12.447-.014-24.893-.006a4.581,4.581,0,0,1-3.967-2.112,17.028,17.028,0,0,1-2.445-7.563,43.811,43.811,0,0,1,.24-11.589,21.343,21.343,0,0,1,2.1-6.82,5.19,5.19,0,0,1,3.155-2.729m-1.03,4.552c-1.543,3.416-1.867,7.224-2.035,10.927a28.252,28.252,0,0,0,1.406,10.111c.47,1.1,1.167,2.551,2.57,2.523,7.98.019,15.961-.019,23.941.019-4.194-7.778-4.356-17.79.193-25.453q-12.068-.023-24.134,0c-1.055-.031-1.512,1.1-1.941,1.873m26.654,18.527a14.914,14.914,0,0,0,2.29,4.617,11.525,11.525,0,0,0,3.015-5.943,29.832,29.832,0,0,0,.249-12.317c-.5-2.287-1.179-4.838-3.149-6.3C1493.193,894.865,1492.645,902.519,1494.782,909.068Z" transform="translate(-10627.847 18803.035)" fill="#383838"/>
  </g>
</svg>
