<svg xmlns="http://www.w3.org/2000/svg" width="26.349" height="41.04" viewBox="0 0 26.349 41.04">
  <g id="Group_2557" data-name="Group 2557" transform="translate(9164.32 -19407.213)">
    <path id="Path_1177" data-name="Path 1177" d="M576.72,1095.756c8.783-.062,17.566-.019,26.349-.019-3.777,6.913-7.744,13.73-11.608,20.6,3.78,6.826,7.741,13.559,11.446,20.425q-13.039,0-26.075,0c3.709-6.866,7.738-13.571,11.452-20.428-3.8-6.888-7.731-13.7-11.564-20.574m4.7,2.657c1.518,3.036,3.32,5.93,4.947,8.914,1.226,2.053,2.253,4.241,3.609,6.207,2.741-5.09,5.712-10.055,8.487-15.127q-8.522.061-17.043.006m0,35.623c5.622.044,11.244,0,16.866.022-2.722-5.009-5.622-9.919-8.354-14.922C587.012,1124.052,584.3,1129.1,581.421,1134.036Z" transform="translate(-9741.04 18311.49)" fill="#383838"/>
  </g>
</svg>
