<svg xmlns="http://www.w3.org/2000/svg" width="41.079" height="27.763" viewBox="0 0 41.079 27.763">
  <g id="Group_2562" data-name="Group 2562" transform="translate(9312 -19131.005)">
    <path id="Path_1189" data-name="Path 1189" d="M102.05,207.971c13.689-.072,27.379,0,41.068-.034.022,9.25,0,18.5.009,27.749q-18.849.023-37.7.006c-1.129-.019-2.259.059-3.382-.059q.037-13.832,0-27.662m2.744,2.685c.019,7.458-.047,14.915.034,22.37,11.863-.062,23.729.006,35.592-.034-.022-7.448.078-14.9-.047-22.345C128.514,210.669,116.654,210.65,104.794,210.656Z" transform="translate(-9414.05 18923.068)" fill="#383838"/>
  </g>
</svg>
