<svg xmlns="http://www.w3.org/2000/svg" width="39.828" height="15.9" viewBox="0 0 39.828 15.9">
  <g id="Group_2532" data-name="Group 2532" transform="translate(9311.163 -19278.895)">
    <path id="Path_1168" data-name="Path 1168" d="M111.433,683.63a19.813,19.813,0,0,1,4.854-.33q9.184,0,18.369,0c4.119-.215,8.724,2.162,9.719,6.406a6.891,6.891,0,0,1-.971,5.376,9.472,9.472,0,0,1-6.586,3.982,33.883,33.883,0,0,1-4.013.118q-8.568,0-17.13,0a15.553,15.553,0,0,1-4.664-.439,8.907,8.907,0,0,1-5.554-4.424,6.951,6.951,0,0,1,.314-6.711,9.15,9.15,0,0,1,5.662-3.979m1.786,2.43a6.978,6.978,0,0,0-4.962,2.719,4.285,4.285,0,0,0-.034,4.888,7.173,7.173,0,0,0,5.886,2.813q10.426.009,20.851,0a7.255,7.255,0,0,0,6.114-2.831,4.231,4.231,0,0,0,.022-4.769c-1.378-2.1-4.045-2.946-6.456-2.881C127.5,686.051,120.353,685.929,113.219,686.06Z" transform="translate(-9415.904 18595.611)" fill="#383838"/>
  </g>
</svg>
