<svg xmlns="http://www.w3.org/2000/svg" width="44.061" height="41.51" viewBox="0 0 44.061 41.51">
  <g id="Group_2533" data-name="Group 2533" transform="translate(9171.327 -19265.402)">
    <path id="Path_1161" data-name="Path 1161" d="M562.183,644.323a20.781,20.781,0,0,1,28.455,30.048c2.147,2.732,5.205,4.539,7.622,7-7.364.034-14.725,0-22.087.016a20.937,20.937,0,0,1-18.285-8.932,20.715,20.715,0,0,1,4.294-28.128m3.612.821a18.039,18.039,0,0,0-8.553,12.168,17.77,17.77,0,0,0,1.82,11.857,18.186,18.186,0,0,0,16.172,9.514q7.9,0,15.789,0c-1.272-1.192-2.869-2.417-3.124-4.253-.205-1.487,1.232-2.327,1.9-3.46a18,18,0,0,0-10.846-27.9A18.232,18.232,0,0,0,565.8,645.144Z" transform="translate(-9725.526 18625.494)" fill="#383838"/>
  </g>
</svg>
