<svg xmlns="http://www.w3.org/2000/svg" width="38.011" height="37.973" viewBox="0 0 38.011 37.973">
  <g id="Group_2496" data-name="Group 2496" transform="translate(0 0)">
    <path id="Path_1158" data-name="Path 1158" d="M1462.162,412.735a18.967,18.967,0,1,1-12.156,8.049,19.047,19.047,0,0,1,12.156-8.049m1.353,1.341a17.453,17.453,0,0,0-6.866,32.167,17.458,17.458,0,0,0,16.02,1.182,17.47,17.47,0,0,0,6.736-27A17.456,17.456,0,0,0,1463.516,414.076Z" transform="translate(-1446.785 -412.386)" fill="#383838"/>
    <path id="Path_1159" data-name="Path 1159" d="M1482.388,440.76a10.475,10.475,0,0,1,6.923.56,10.3,10.3,0,1,1-6.923-.56m1,1.347a8.741,8.741,0,1,0,10.4,8.752,8.538,8.538,0,0,0-2.763-6.59A8.739,8.739,0,0,0,1483.387,442.107Z" transform="translate(-1466.059 -431.697)" fill="#383838"/>
  </g>
</svg>
