<svg xmlns="http://www.w3.org/2000/svg" width="41.225" height="27.214" viewBox="0 0 41.225 27.214">
  <g id="Group_2550" data-name="Group 2550" transform="translate(9235.595 -19691.783)">
    <path id="Path_1176" data-name="Path 1176" d="M1248.94,895.277a76.753,76.753,0,0,1,10.395-.084c4.4.249,8.879.588,13.083,2.016,1.543.573,3.475,1.543,3.528,3.435.037,5.585.012,11.175.012,16.763a2.9,2.9,0,0,1-1.8,2.644,23.268,23.268,0,0,1-7.324,1.724,110.445,110.445,0,0,1-23.99-.339,24.018,24.018,0,0,1-6.213-1.518,2.71,2.71,0,0,1-1.879-2.492c.022-5.709-.028-11.421.025-17.127.286-1.776,2.088-2.685,3.612-3.257a40.145,40.145,0,0,1,10.553-1.764m-9.775,4.365a61.778,61.778,0,0,0,25.16,1.316,51.586,51.586,0,0,0,6.8-1.344c-6.652-1.867-13.64-1.873-20.494-1.749-3.858.277-7.784.516-11.471,1.776m-1.749,2.6c.1,5.006.022,10.015.04,15.021,2.1,1.073,4.5,1.266,6.8,1.621a104.035,104.035,0,0,0,23.754,0,14.293,14.293,0,0,0,5.264-1.5c-.084-5.109.1-10.23-.09-15.329-2.523.563-5.062,1.055-7.61,1.459a63.634,63.634,0,0,1-22.87-.308C1240.926,902.978,1239.2,902.352,1237.416,902.243Z" transform="translate(-10470.336 18796.727)" fill="#383838"/>
  </g>
</svg>
