<svg xmlns="http://www.w3.org/2000/svg" width="28.122" height="27.49" viewBox="0 0 28.122 27.49">
  <g id="Group_2549" data-name="Group 2549" transform="translate(9233.276 -19342.232)">
    <path id="Path_1175" data-name="Path 1175" d="M355.08,886.918c9.365-.125,18.733-.019,28.1-.056.047,7.364,0,14.732.022,22.1-3.733,2.884-8.186,5.112-12.964,5.351-5.513.358-10.948-1.954-15.117-5.426-.056-7.321.022-14.644-.04-21.965m2.788,2.62c-.1,6.033-.065,12.068-.022,18.1a20.9,20.9,0,0,0,9.968,3.926c4.552.457,8.97-1.394,12.65-3.936.037-6.026.065-12.056-.016-18.079C372.923,889.575,365.394,889.6,357.868,889.538Z" transform="translate(-9588.356 18455.377)" fill="#383838"/>
  </g>
</svg>
