<svg xmlns="http://www.w3.org/2000/svg" width="26.539" height="33.572" viewBox="0 0 26.539 33.572">
  <g id="Group_2545" data-name="Group 2545" transform="translate(9298.331 -19481.171)">
    <path id="Path_1149" data-name="Path 1149" d="M1038,218.82a49.782,49.782,0,0,1,16.816.006c1.562.358,3.326.641,4.465,1.873.625.65.243,1.556.193,2.324.022,7.993.078,15.988.1,23.981a1.683,1.683,0,0,1-1.036,1.64,30.585,30.585,0,0,1-9.256,2.816,26.673,26.673,0,0,1-15.578-2.952c-.177-.392-.5-.756-.47-1.21-.05-8.092-.059-16.184-.115-24.274,0-.843-.19-1.86.529-2.486,1.173-1.1,2.838-1.378,4.353-1.717m-2.716,2.781a5.468,5.468,0,0,0,2.657,1.024,49.418,49.418,0,0,0,14.974.345,14.16,14.16,0,0,0,4.586-1.244c-3.105-1.294-6.537-1.444-9.853-1.552a37.586,37.586,0,0,0-12.364,1.428m-.1,2.352c.034,7.685-.006,15.369.034,23.054a24.72,24.72,0,0,0,13.02,2.536,29.223,29.223,0,0,0,9.328-2.635c.078-7.638-.065-15.279-.041-22.92a36.309,36.309,0,0,1-10.51,1.394C1043.045,225.354,1038.988,225.229,1035.186,223.954Z" transform="translate(-10331.428 19263.063)" fill="#383838"/>
  </g>
</svg>
