<svg xmlns="http://www.w3.org/2000/svg" width="40.427" height="28.336" viewBox="0 0 40.427 28.336">
  <g id="Group_2529" data-name="Group 2529" transform="translate(9311.116 -19201.121)">
    <path id="Path_1155" data-name="Path 1155" d="M104.944,433.3q20.161,0,40.321,0c.109,9.43.012,18.863.047,28.3q-20.207.075-40.415,0c.034-9.43-.059-18.863.047-28.293m2.738,2.7c.016,7.65-.031,15.3.025,22.951,1.546-.034,3.089-.025,4.636-.009.068-7.647.019-15.295.025-22.942-1.562,0-3.124,0-4.686,0m7.47,0c.009,7.65-.031,15.3.022,22.954,6.527-.047,13.055-.028,19.579-.012.1-7.644.016-15.292.044-22.939q-9.824,0-19.644,0m22.4,0c0,7.65-.028,15.3.016,22.951q2.469-.042,4.941,0c.031-7.65.009-15.3.012-22.948Q140.042,436.014,137.556,436Z" transform="translate(-9416.008 18767.818)" fill="#383838"/>
  </g>
</svg>
