<svg xmlns="http://www.w3.org/2000/svg" width="40.452" height="40.418" viewBox="0 0 40.452 40.418">
  <g id="Group_2528" data-name="Group 2528" transform="translate(9240.816 -19196.395)">
    <path id="Path_1153" data-name="Path 1153" clipPath id="svgpath" d="M330.876,418.123q20.2-.033,40.4-.009c.044,13.472,0,26.94.019,40.408q-20.221.014-40.446,0c.019-13.465-.034-26.934.025-40.4m2.735,2.744c-.006,2.489-.009,4.975,0,7.461,2.43.006,4.857,0,7.286,0,0-2.489,0-4.978,0-7.464q-3.645,0-7.293,0m10,0c.006,2.489,0,4.978,0,7.467q12.474,0,24.949,0,0-3.733,0-7.461-12.474-.009-24.952,0m-10,10.258c.009,8.229-.022,16.458.016,24.687,2.417.025,4.835.006,7.252.009.059-8.232.012-16.465.022-24.694q-3.645-.033-7.29,0m10.006-.009q0,12.348-.006,24.7,12.465.014,24.933,0c.047-8.232.012-16.461.016-24.694C360.243,431.1,351.926,431.118,343.613,431.112Z" transform="translate(-9571.663 18778.283)" fill="#383838"/>
  </g>
</svg>
