<svg xmlns="http://www.w3.org/2000/svg" width="44.014" height="41.491" viewBox="0 0 44.014 41.491">
  <g id="Group_2551" data-name="Group 2551" transform="translate(9306.942 -19682.453)">
    <path id="Path_1169" data-name="Path 1169" d="M1016.621,867.4a20.748,20.748,0,0,1,29.69,23.449,21.458,21.458,0,0,1-4.458,8.659c2.1,2.775,5.252,4.511,7.582,7.047-7.881-.019-15.761.022-23.642-.019a20.725,20.725,0,0,1-9.172-39.136m-5.233,8.092a18.012,18.012,0,0,0,7.517,26.812,18.916,18.916,0,0,0,7.812,1.552q7.761,0,15.528,0a11.222,11.222,0,0,1-2.965-3.475,2.453,2.453,0,0,1,.361-2.529,18.116,18.116,0,0,0-.265-24.314,17.719,17.719,0,0,0-13.275-5.712A17.936,17.936,0,0,0,1011.387,875.5Z" transform="translate(-10312.362 18817.387)" fill="#383838"/>
  </g>
</svg>
