<svg xmlns="http://www.w3.org/2000/svg" width="36.19" height="36.15" viewBox="0 0 36.19 36.15">
  <g id="Group_2563" data-name="Group 2563" transform="translate(-166.851 -763.617)">
    <g id="Group_2554" data-name="Group 2554" transform="translate(9399 -18996)">
      <path id="Path_1184" data-name="Path 1184" d="M1314.716,1145.2a3.093,3.093,0,1,1-.815,5.463A3.1,3.1,0,0,1,1314.716,1145.2Z" transform="translate(-10523.99 18624.535)" fill="#383838"/>
    </g>
    <g id="Group_2555" data-name="Group 2555" transform="translate(9399 -18996)">
      <path id="Path_1185" data-name="Path 1185" d="M1279.646,1145.552a3.095,3.095,0,1,1-.734,5.351A3.119,3.119,0,0,1,1279.646,1145.552Z" transform="translate(-10499.934 18624.32)" fill="#383838"/>
    </g>
    <g id="Group_2556" data-name="Group 2556" transform="translate(9399 -18996)">
      <path id="Path_1186" data-name="Path 1186" d="M1272.86,1191.616a7.251,7.251,0,0,1,1.773-1c1.568,2.691,4.962,3.506,7.871,3.513,3.049-.094,6.456-.9,8.375-3.475a7.915,7.915,0,0,1,1.646,1.17c-2.352,3.189-6.543,4.343-10.339,4.281C1278.641,1196.146,1274.73,1194.823,1272.86,1191.616Z" transform="translate(-10496.595 18593.117)" fill="#383838"/>
    </g>
    <g id="Group_2561" data-name="Group 2561" transform="translate(9399 -18996)">
      <path id="Path_1181" data-name="Path 1181" d="M1261.544,1113.256a18.023,18.023,0,1,1-10.712,5.413,18.05,18.05,0,0,1,10.712-5.413m-.915,2.187a16.066,16.066,0,1,0,15.441,5.227A16.082,16.082,0,0,0,1260.63,1115.443Z" transform="translate(-10477.965 18646.529)" fill="#383838"/>
    </g>
  </g>
</svg>
