<svg xmlns="http://www.w3.org/2000/svg" width="37.755" height="37.732" viewBox="0 0 37.755 37.732">
  <g id="Group_2495" data-name="Group 2495" transform="translate(0 0)">
    <path id="Path_1150" data-name="Path 1150" d="M1443.837,211.553c12.579-.044,25.157-.016,37.736-.012,0,12.572.04,25.148-.019,37.72-12.563-.022-25.126.019-37.689-.022-.068-12.56-.009-25.123-.028-37.686m1.6,1.475c-.081,11.567-.016,23.141-.034,34.709,11.561-.037,23.126.056,34.687-.047-.065-11.539,0-23.082-.031-34.622C1468.521,213.006,1456.978,213.084,1445.439,213.028Z" transform="translate(-1443.831 -211.529)" fill="#383838"/>
    <path id="Path_1151" data-name="Path 1151" d="M1458.992,226.746c9.43-.062,18.863-.012,28.3-.025-.031,9.43.074,18.866-.053,28.293-9.4-.056-18.8,0-28.2-.028-.1-9.411-.009-18.829-.043-28.24m1.515,1.515c.043,8.406-.006,16.816.025,25.226q12.61-.023,25.217,0c.065-8.406.016-16.813.025-25.219Q1473.14,228.185,1460.507,228.261Z" transform="translate(-1454.273 -221.989)" fill="#383838"/>
  </g>
</svg>
