<svg xmlns="http://www.w3.org/2000/svg" width="41.339" height="41.394" viewBox="0 0 41.339 41.394">
  <g id="Group_2559" data-name="Group 2559" transform="translate(9241.7 -19407.836)">
    <path id="Path_1179" data-name="Path 1179" d="M345.5,1097.959a20.744,20.744,0,1,1-11.487,5.889,20.431,20.431,0,0,1,11.487-5.889m-8.78,7.062a18.081,18.081,0,0,0-5.946,12c5.8,0,11.6-.019,17.395.009.037-5.532.006-11.06.016-16.592a17.8,17.8,0,0,0-11.465,4.58m14.237-4.455c0,5.488-.031,10.973.019,16.458,5.19,0,10.379-.022,15.569.009a17.493,17.493,0,0,0-3.827-9.822,17.956,17.956,0,0,0-11.76-6.646M330.8,1119.7a17.952,17.952,0,0,0,17.376,16.685c-.022-5.566.075-11.132-.05-16.695-5.774.059-11.552.043-17.326.009m20.232-.006c-.193,5.5-.028,11.011-.081,16.517,8.223-.828,15.292-8.238,15.544-16.52Q358.768,1119.772,351.034,1119.691Z" transform="translate(-9569.706 18310.117)" fill="#383838"/>
  </g>
</svg>
