<svg xmlns="http://www.w3.org/2000/svg" width="40.303" height="35.461" viewBox="0 0 40.303 35.461">
  <g id="Group_2552" data-name="Group 2552" transform="translate(9170.349 -19339.782)">
    <path id="Path_1170" data-name="Path 1170" d="M560.981,882.747a11.642,11.642,0,0,1,8.055-3.761c9.523.016,19.047-.034,28.57.025.062,11.807.034,23.617.016,35.424q-20.133.023-40.268.006c-.022-7.881,0-15.761-.009-23.645-.078-3.074,1.556-5.9,3.637-8.049m2.4,1.478c-1.82,1.693-3.348,3.995-3.338,6.565,0,6.96.016,13.919-.009,20.879,11.6.1,23.207.019,34.811.04.025-9.978.006-19.958.009-29.936-8.612-.009-17.224,0-25.832-.006A8.139,8.139,0,0,0,563.38,884.225Z" transform="translate(-9727.69 18460.801)" fill="#383838"/>
  </g>
</svg>
