<svg xmlns="http://www.w3.org/2000/svg" width="36.328" height="36.038" viewBox="0 0 36.328 36.038">
  <g id="Group_2497" data-name="Group 2497" transform="translate(0 -0.001)">
    <path id="Path_1182" data-name="Path 1182" d="M1024.353,1115.356a32.058,32.058,0,0,1,3.982-.078c.012.473.028.952.056,1.437-1.431.212-2.915-.149-4.318.267a3.988,3.988,0,0,0-2.862,3.8q-.028,12.278,0,24.56a3.99,3.99,0,0,0,2.9,3.817c1.394.4,2.862.056,4.284.255-.025.473-.041.952-.053,1.438-1.895-.037-3.942.308-5.681-.635a5.423,5.423,0,0,1-2.971-4.86q0-12.292,0-24.582A5.506,5.506,0,0,1,1024.353,1115.356Z" transform="translate(-1019.684 -1115.255)" fill="#383838"/>
    <path id="Path_1183" data-name="Path 1183" d="M1108.5,1116.8c1.833.1,3.808-.342,5.516.523a5.612,5.612,0,0,1,2.956,3.568,16.7,16.7,0,0,1,.174,3.416q0,10.734.006,21.467a5.848,5.848,0,0,1-3.155,6.017c-1.7.871-3.668.411-5.494.526,0-.516.009-1.024.031-1.531,1.786-.115,3.814.423,5.379-.706a4.2,4.2,0,0,0,1.72-3.687q-.009-11.989-.006-23.981a4.024,4.024,0,0,0-3.276-4.032,31.3,31.3,0,0,0-3.78-.05A10.13,10.13,0,0,1,1108.5,1116.8Z" transform="translate(-1080.867 -1116.301)" fill="#383838"/>
  </g>
</svg>
