<svg xmlns="http://www.w3.org/2000/svg" width="41.108" height="28.591" viewBox="0 0 41.108 28.591">
  <g id="Group_2538" data-name="Group 2538" transform="translate(9095.254 -19688.628)">
    <path id="Path_1173" data-name="Path 1173" d="M1692.674,884.922c9.234.028,18.468.012,27.705.009a4.075,4.075,0,0,1,3.485,1.161c1.609,1.86,2.122,4.371,2.554,6.726a43.324,43.324,0,0,1,.047,12.949,15.159,15.159,0,0,1-1.985,5.905,3.835,3.835,0,0,1-3.161,1.814c-9.558.022-19.115-.013-28.673.015-2.333-4.832-4.533-9.729-6.826-14.576,2.293-4.664,4.514-9.365,6.854-14m1.624,2.809c-1.77,3.746-3.706,7.423-5.389,11.207,1.674,3.982,3.646,7.849,5.407,11.8,9.113.025,18.229,0,27.341.012a6.826,6.826,0,0,0,1.721-3.456,39.17,39.17,0,0,0,.616-12.128c-.392-2.551-.594-5.392-2.321-7.448C1712.548,887.732,1703.423,887.71,1694.3,887.732Z" transform="translate(-10781.074 18803.717)" fill="#383838"/>
  </g>
</svg>
