<svg xmlns="http://www.w3.org/2000/svg" width="41.612" height="39.871" viewBox="0 0 41.612 39.871">
  <g id="Group_2534" data-name="Group 2534" transform="translate(9236.008 -19613.967)">
    <path id="Path_1162" data-name="Path 1162" d="M1233.41,644.96c13.87-.012,27.743-.034,41.612.009-6.835,13.325-13.873,26.551-20.764,39.845-3-5.323-5.7-10.83-8.578-16.231q-5.189-9.908-10.363-19.825c-.619-1.276-1.394-2.477-1.907-3.8m4.461,2.785c2.859,5.541,5.781,11.054,8.655,16.589,2.595,4.86,5.031,9.813,7.716,14.623,5.438-10.4,10.846-20.817,16.322-31.2C1259.669,647.7,1248.77,647.742,1237.871,647.745Z" transform="translate(-10469.418 18969.023)" fill="#383838"/>
  </g>
</svg>
