<svg xmlns="http://www.w3.org/2000/svg" width="20.421" height="36.834" viewBox="0 0 20.421 36.834">
  <g id="Group_2560" data-name="Group 2560" transform="translate(9089.376 -19408.788)">
    <path id="Path_1180" data-name="Path 1180" d="M827.449,1100.78c1.54,2.228,2.663,4.735,4.045,7.069,2.153,3.995,4.493,7.909,6.53,11.953-3.373,5.681-6.873,11.291-10.273,16.956a4.839,4.839,0,0,1-.653.856c-3-5.662-6.045-11.3-9.085-16.937-.134-.374-.551-.734-.361-1.148,3.233-6.266,6.574-12.476,9.8-18.748m.1,5.672c-2,4.054-4.3,7.974-6.213,12.068,4.3-.031,8.59-.012,12.887-.012q-3.215-6.086-6.674-12.056m-6.129,14.738c1.932,3.687,3.917,7.343,5.9,11,1.938-3.124,3.83-6.278,5.75-9.414a4.837,4.837,0,0,0,.8-1.6C829.711,1121.227,825.564,1121.214,821.417,1121.189Z" transform="translate(-9906.979 18308.008)" fill="#383838"/>
  </g>
</svg>
