<svg xmlns="http://www.w3.org/2000/svg" width="40.462" height="35.05" viewBox="0 0 40.462 35.05">
  <g id="Group_2553" data-name="Group 2553" transform="translate(9099.613 -19339.943)">
    <path id="Path_1171" data-name="Path 1171" d="M804.163,883.157a22.236,22.236,0,0,1,9.237-3.547,13.583,13.583,0,0,1,11.76,4.113c-.022,10.012,0,20.021-.012,30.032a12.023,12.023,0,0,1-1.786-1.773,13.077,13.077,0,0,0-8.41-4.3,14.667,14.667,0,0,0-9.514,2.931,20.533,20.533,0,0,1-8.1,3.687,13.557,13.557,0,0,1-12.616-4.172c-.04-8.609-.006-17.217-.019-25.823.025-1.251-.062-2.5.062-3.749.989.992,1.857,2.106,2.915,3.033a11.937,11.937,0,0,0,7.349,2.576,18.133,18.133,0,0,0,9.131-3.005m1.4,2.34a20.055,20.055,0,0,1-10.871,3.354,16.262,16.262,0,0,1-7.305-2.038c.062,7.389.006,14.778.028,22.167a10.753,10.753,0,0,0,8.186,2.8,16.481,16.481,0,0,0,8.126-3.3,18.726,18.726,0,0,1,8.148-3.4,14.908,14.908,0,0,1,10.5,2.486q.047-11.424,0-22.852a11.525,11.525,0,0,0-8.991-2.349A19.8,19.8,0,0,0,805.563,885.5Z" transform="translate(-9884.312 18460.439)" fill="#383838"/>
  </g>
</svg>
