<svg xmlns="http://www.w3.org/2000/svg" width="36.404" height="36.502" viewBox="0 0 36.404 36.502">
  <g id="Group_2547" data-name="Group 2547" transform="translate(9103.812 -19478.943)">
    <path id="Path_1145" data-name="Path 1145" d="M1658.323,211.918c.432-.333.759-1.008,1.388-.968q16.978,0,33.962,0c.4.46,1.129.815,1.03,1.534q0,6.86,0,13.717c-.078,2.371.149,4.769-.115,7.125a18.224,18.224,0,0,1-2.576,2.775q-5.306,5.259-10.6,10.522a2.342,2.342,0,0,1-1.8.756q-9.782.014-19.57.056a1.538,1.538,0,0,1-1.7-1.621c.016-11.3-.059-22.6-.028-33.893m2.1,1.02a24.341,24.341,0,0,0-.068,2.974q0,14.77,0,29.544c6.307-.012,12.616-.047,18.922-.037.056-1.966.342-3.914.4-5.88a43.5,43.5,0,0,1,1.111-7.588,1.367,1.367,0,0,1,1.876-1.011,12.229,12.229,0,0,0,3.858,2.184,9.108,9.108,0,0,0,6.163-.778c.034-6.465.075-12.933-.022-19.4-10.743.05-21.492.072-32.235-.012m22.065,20.394a71.993,71.993,0,0,0-1.011,10.18c2.862-2.676,5.622-5.46,8.4-8.217A9.893,9.893,0,0,1,1682.488,233.332Z" transform="translate(-10762.127 19267.996)" fill="#383838"/>
  </g>
</svg>
