<svg xmlns="http://www.w3.org/2000/svg" width="41.89" height="27.971" viewBox="0 0 41.89 27.971">
  <g id="Group_2542" data-name="Group 2542" transform="translate(9164.896 -19618.695)">
    <g id="Group_2541" data-name="Group 2541">
      <path id="Path_1165" data-name="Path 1165" d="M1464.139,663.525a5.788,5.788,0,0,1,4.947-3.376q17.127-.014,34.255,0c.134.031.4.087.529.118a41.34,41.34,0,0,0-5.877,6.331,12.935,12.935,0,0,0-2.585,8.378,14.934,14.934,0,0,0,3.621,8.089c1.431,1.836,3.255,3.307,4.816,5.021-11.683.047-23.365.009-35.045.019-2.038-.031-3.653-1.615-4.555-3.32-1.755-3.273-2.156-7.066-2.265-10.721.075-3.59.454-7.318,2.159-10.541m2.032,2.041a24.524,24.524,0,0,0-1.341,11.035c.342,2.741.756,5.687,2.523,7.924a2.869,2.869,0,0,0,2.676.887c9.116,0,18.235-.028,27.351.012a23.846,23.846,0,0,1-3.7-6.02,14.089,14.089,0,0,1,.118-10.821,18.853,18.853,0,0,1,3.621-5.606,9.491,9.491,0,0,0-1.876-.093q-13.23,0-26.461.006C1467.577,662.865,1466.721,664.368,1466.171,665.565Z" transform="translate(-10626.876 18958.555)" fill="#383838"/>
    </g>
  </g>
</svg>
