<svg xmlns="http://www.w3.org/2000/svg" width="41.112" height="27.771" viewBox="0 0 41.112 27.771">
  <g id="Group_2524" data-name="Group 2524" transform="translate(9240.876 -19130.999)">
    <path id="Path_1144" data-name="Path 1144" d="M334.238,208.05a9.687,9.687,0,0,1,2.383-.121q15.261,0,30.515,0a4.975,4.975,0,0,1,4.592,5.606c-.019,5.809.012,11.617-.016,17.426a4.824,4.824,0,0,1-2.794,4.284,8.093,8.093,0,0,1-3.671.439q-14.934-.009-29.874,0a4.714,4.714,0,0,1-4.714-4.72q0-9.184,0-18.365a4.752,4.752,0,0,1,3.575-4.542m.3,2.766a2.158,2.158,0,0,0-1.176,2.069c-.006,6.02-.025,12.037.006,18.054a2.1,2.1,0,0,0,2.305,2.047c10.385-.006,20.767.019,31.153-.012a2.116,2.116,0,0,0,2.15-1.988c.028-6.036.006-12.071.009-18.1a2.09,2.09,0,0,0-2.2-2.231c-10.264-.022-20.525,0-30.786-.012A4.506,4.506,0,0,0,334.537,210.816Z" transform="translate(-9571.532 18923.084)" fill="#383838"/>
  </g>
</svg>
