<svg xmlns="http://www.w3.org/2000/svg" width="36.084" height="37.35" viewBox="0 0 36.084 37.35">
  <g id="Group_2546" data-name="Group 2546" transform="translate(9240.227 -19479.257)">
    <path id="Path_1146" data-name="Path 1146" d="M1230.714,212.233c.411-.423,1.042-.227,1.574-.258,7.778.258,15.565.24,23.347.464.05,9.567.255,19.128.3,28.695-2.8,2.722-5.569,5.469-8.388,8.173-9.231-.012-18.462,0-27.693-.009q0-14.014,0-28.029c3.593-3.043,7.252-6.011,10.865-9.035m-4.1,5.877a33.27,33.27,0,0,0-3.313,2.984c7.451-.037,14.906,0,22.36-.016.451.037.706-.408,1.024-.663,1.979-2.019,4.076-3.929,6.017-5.986-7.091-.249-14.187-.243-21.281-.42-1.627,1.335-3.211,2.729-4.807,4.1m24.168,1.117c-1.042,1.12-2.293,2.088-3.214,3.289-.047,7.822-.019,15.643-.009,23.465,2.253-1.963,4.48-3.976,6.624-6.061-.093-7.859-.2-15.724-.373-23.58-1.1.856-2,1.941-3.027,2.887m-28.891,28.094q11.826.014,23.655,0c.025-8.039-.034-16.082.031-24.121-7.884-.156-15.78-.025-23.667-.065C1221.854,231.193,1221.894,239.257,1221.888,247.322Z" transform="translate(-10460.077 19267.301)" fill="#383838"/>
  </g>
</svg>
