<svg xmlns="http://www.w3.org/2000/svg" width="20.838" height="20.838" viewBox="0 0 20.838 20.838"><defs><style>.a{fill:#8782d9;}.b{fill:#282461;}</style></defs><path class="a" d="M18.884,0H1.954A1.954,1.954,0,0,0,0,1.954V18.884a1.954,1.954,0,0,0,1.954,1.954H18.884a1.954,1.954,0,0,0,1.954-1.954V1.954A1.954,1.954,0,0,0,18.884,0Zm0,19.536Z"/><path class="b" d="M91.1,241.632a.651.651,0,0,0-.918,0l-1.5,1.5-2.794-2.794a.651.651,0,0,0-.918,0l-4.558,4.558A.651.651,0,0,0,80.867,246H93.89a.651.651,0,0,0,.462-1.114Z" transform="translate(-76.96 -230.373)"/><circle class="b" cx="2" cy="2" r="2" transform="translate(10.405 5)"/></svg>