<svg xmlns="http://www.w3.org/2000/svg" width="11.638" height="15.517" viewBox="0 0 11.638 15.517"><defs><style>.a{fill:#8d8d8d;}</style></defs><g transform="translate(-64)"><g transform="translate(64)"><path class="a" d="M75.314,5.819h-.97V4.526a4.526,4.526,0,0,0-9.052,0V5.819h-.97A.323.323,0,0,0,64,6.142v8.082a1.294,1.294,0,0,0,1.293,1.293h9.052a1.294,1.294,0,0,0,1.293-1.293V6.142A.323.323,0,0,0,75.314,5.819Zm-4.528,6.753a.323.323,0,0,1-.321.359H69.172a.323.323,0,0,1-.321-.359l.2-1.834a1.279,1.279,0,0,1-.529-1.04,1.293,1.293,0,0,1,2.586,0,1.279,1.279,0,0,1-.529,1.04ZM72.4,5.819H67.233V4.526a2.586,2.586,0,0,1,5.172,0Z" transform="translate(-64)"/></g></g></svg>