<svg xmlns="http://www.w3.org/2000/svg" xmlns:xlink="http://www.w3.org/1999/xlink" width="160.397" height="39.925" viewBox="0 0 160.397 39.925"><defs><style>.a{fill:#282461;}.b{fill:#2e3192;}.c{fill:#8d8d8d;}.d{fill:url(#a);}.e{fill:url(#b);}.f{fill:url(#c);}.g{fill:#e22b26;}</style><linearGradient id="a" y1="0.5" x2="1" y2="0.5" gradientUnits="objectBoundingBox"><stop offset="0" stop-color="#e11b22"/><stop offset="1" stop-color="#f6851f"/></linearGradient><linearGradient id="b" x1="-0.289" y1="0.646" x2="0.547" y2="0.223" gradientUnits="objectBoundingBox"><stop offset="0" stop-color="#e11b22"/><stop offset="1" stop-color="#fec00f"/></linearGradient><linearGradient id="c" x1="0.005" y1="-0.005" x2="0.488" y2="0.889" gradientUnits="objectBoundingBox"><stop offset="0" stop-color="#f37321"/><stop offset="1" stop-color="#e11b22"/></linearGradient></defs><g transform="translate(0)"><g transform="translate(19.444 0.243)"><path class="a" d="M609.268,487.254v1.588a5.71,5.71,0,0,0-1.952-1.377,6.688,6.688,0,0,0-2.473-.406,5.891,5.891,0,0,0-4.148,1.3,5.448,5.448,0,0,0-1.724,2.787,25.586,25.586,0,0,0,0,8.215,5.469,5.469,0,0,0,1.724,2.772,5.857,5.857,0,0,0,4.112,1.3,6.864,6.864,0,0,0,2.422-.381,5.18,5.18,0,0,0,1.9-1.3v1.706a3.624,3.624,0,0,1-.89,2.495,3.515,3.515,0,0,1-2.769,1,5.111,5.111,0,0,1-3.56-1.3l-2.821,2.657a7.8,7.8,0,0,0,2.891,1.734,12.587,12.587,0,0,0,3.7.474,8.348,8.348,0,0,0,5.8-1.961,6.463,6.463,0,0,0,2.177-5.039V487.249Zm-.17,8.846v.6a2.743,2.743,0,0,1-.421,1.455c-.043.108-.09.212-.141.312a2.429,2.429,0,0,1-2.4,1.167h-.188a3.058,3.058,0,0,1-3.153-2.933v-2.91a3.058,3.058,0,0,1,3.153-2.932h.188a2.433,2.433,0,0,1,2.4,1.166c.051.1.1.2.143.313a2.753,2.753,0,0,1,.42,1.453v.582c.02.273.03.558.03.86S609.118,495.825,609.1,496.1Z" transform="translate(-568.812 -481.065)"/><path class="a" d="M373.912,491.882a4.238,4.238,0,0,0-1.079-.763,3.134,3.134,0,0,0-1.325-.243,2.944,2.944,0,0,0-2.056.8,2.981,2.981,0,0,0-.871,2.322v10.2h-4.53V487.284h4.426v1.621a5.294,5.294,0,0,1,1.916-1.28,6.671,6.671,0,0,1,2.648-.535,6.967,6.967,0,0,1,2.352.357,5.7,5.7,0,0,1,1.934,1.231Z" transform="translate(-364.05 -481.089)"/><path class="a" d="M1105.418,463.017V452.686a2.776,2.776,0,0,0-.871-2.273,3.19,3.19,0,0,0-2.09-.715,3.121,3.121,0,0,0-2.074.715,2.8,2.8,0,0,0-.853,2.273v10.331H1095V439.91h4.531v7.746a6.119,6.119,0,0,1,4.355-1.751,5.839,5.839,0,0,1,4.5,1.69,6.3,6.3,0,0,1,1.567,4.479v10.942Z" transform="translate(-1002.061 -439.91)"/><path class="a" d="M1378.091,491.882a4.264,4.264,0,0,0-1.081-.763,3.134,3.134,0,0,0-1.323-.243,2.941,2.941,0,0,0-2.056.8,2.985,2.985,0,0,0-.872,2.322v10.2h-4.529V487.284h4.421v1.621a5.311,5.311,0,0,1,1.917-1.281,6.668,6.668,0,0,1,2.647-.535,6.963,6.963,0,0,1,2.352.357,5.717,5.717,0,0,1,1.935,1.231Z" transform="translate(-1240.55 -481.089)"/><path class="a" d="M1243.181,495.13a8.181,8.181,0,0,0-2.108-5.817,8.48,8.48,0,0,0-11.551.036,8.867,8.867,0,0,0-2.161,6.336q0,4.764,2.336,6.71a9.152,9.152,0,0,0,6.063,1.944,10.136,10.136,0,0,0,3.885-.636,10.411,10.411,0,0,0,3.015-2.028l-2.756-2.493a6.067,6.067,0,0,1-1.828,1.232,6.234,6.234,0,0,1-2.289.356,3.965,3.965,0,0,1-2.924-1.036,3.684,3.684,0,0,1-1.045-2.724h11.36Zm-11.343.357v-1.362h-.018a4.178,4.178,0,0,1,.4-1.751,2.992,2.992,0,0,1,1.167-1.344,4,4,0,0,1,3.764,0,2.955,2.955,0,0,1,1.144,1.281,4.455,4.455,0,0,1,.418,1.814h-4.625Z" transform="translate(-1117.592 -481.065)"/><path class="a" d="M481.211,491.785a5.7,5.7,0,0,0-1.5-2.543,7.54,7.54,0,0,0-2.474-1.6,8.829,8.829,0,0,0-3.293-.567,8.624,8.624,0,0,0-3.293.567,7.556,7.556,0,0,0-2.456,1.638,5.732,5.732,0,0,0-1.5,2.491,18.358,18.358,0,0,0,.018,7.863,5.687,5.687,0,0,0,1.5,2.543,7.566,7.566,0,0,0,2.458,1.6,9.83,9.83,0,0,0,6.581,0,6.952,6.952,0,0,0,2.343-1.507,6.06,6.06,0,0,0,1.638-2.626,14.742,14.742,0,0,0,.418-3.954A14.555,14.555,0,0,0,481.211,491.785Zm-4.094,5.83a2.837,2.837,0,0,1-1.038,2.162c-.033.033-.06.071-.1.1a2.649,2.649,0,0,1-1.6.636,3.457,3.457,0,0,1-.416.029H473.9a2.864,2.864,0,0,1-.315-.02,2.615,2.615,0,0,1-1.607-.608c-.047-.044-.086-.092-.127-.137a2.838,2.838,0,0,1-1.036-2.161V493.8a2.842,2.842,0,0,1,1.036-2.161c.034-.034.061-.071.1-.1a2.631,2.631,0,0,1,1.626-.636,3.249,3.249,0,0,1,.338-.023h.112a2.969,2.969,0,0,1,2.052.743c.026.023.045.048.067.073a2.828,2.828,0,0,1,.979,2.114Z" transform="translate(-453.281 -481.074)"/><path class="a" d="M972.718,490.949a6.136,6.136,0,0,0-1.743-2.706,5.827,5.827,0,0,0-4.059-1.184,6.06,6.06,0,0,0-4.53,1.78v-1.586H958v23.108h4.527V502.65a5.155,5.155,0,0,0,1.916,1.313,7.225,7.225,0,0,0,2.474.373,6.24,6.24,0,0,0,4.426-1.526,5.025,5.025,0,0,0,1.526-2.868,24.261,24.261,0,0,0,.314-4.262A17.25,17.25,0,0,0,972.718,490.949Zm-3.784,6.656a3.058,3.058,0,0,1-3.153,2.933H965.6a2.475,2.475,0,0,1-2.491-1.2,4.2,4.2,0,0,1-.219-.576,2.742,2.742,0,0,1-.254-1.158v-.127a14.924,14.924,0,0,1-.1-1.8,14.268,14.268,0,0,1,.1-1.757v-.13a2.732,2.732,0,0,1,.287-1.213,4.329,4.329,0,0,1,.206-.52,2.48,2.48,0,0,1,2.474-1.2h.186a3.325,3.325,0,0,1,1.031.165l.034.011a2.957,2.957,0,0,1,2.084,2.755Z" transform="translate(-882.48 -481.065)"/><path class="a" d="M828.5,488.864c-.422-.1-2.586-.136-2.662-.144l-3.731,3.354c1.169.008,2.064,0,2.924,0a4.155,4.155,0,0,1,2.6.636,2.448,2.448,0,0,1,.783,2.022v.843h-4.287a6.89,6.89,0,0,0-4.633,1.361,4.462,4.462,0,0,0-1.569,3.533,5.04,5.04,0,0,0,1.551,3.814,6.228,6.228,0,0,0,4.273,1.465h9.2V494.484A5.274,5.274,0,0,0,828.5,488.864Zm.094,14.71-1.751-1.252-2.67-.006a2,2,0,0,1-2.065-1.925h0a2,2,0,0,1,2.071-1.926h4.416Z" transform="translate(-760.211 -482.514)"/><path class="a" d="M749.112,491.085a3.84,3.84,0,0,1,.81.525l3.541-3.1a5.607,5.607,0,0,0-1.79-1.107,6.971,6.971,0,0,0-2.352-.357,6.666,6.666,0,0,0-2.648.535,5.272,5.272,0,0,0-1.916,1.28v-1.621H740.33v16.917h4.535v-10.2a2.988,2.988,0,0,1,.871-2.322,2.943,2.943,0,0,1,2.053-.8A3.146,3.146,0,0,1,749.112,491.085Z" transform="translate(-692.486 -481.055)"/></g><path class="b" d="M823.745,504.93l-.065.062.076.069Z" transform="translate(-745.795 -496.42)"/><g transform="translate(57.644 32.874)"><path class="c" d="M666.119,703.305a12.853,12.853,0,0,1-1.629-2.781,1.5,1.5,0,0,1,.306-.041.734.734,0,0,1,.7.416,8.4,8.4,0,0,0,1,1.826,8.3,8.3,0,0,0,.905-1.653.856.856,0,0,1,.791-.593,1.7,1.7,0,0,1,.306.041,12.957,12.957,0,0,1-1.635,2.781v2.106s-.742,0-.742-.4Z" transform="translate(-664.49 -699.98)"/><path class="c" d="M697.884,713.383c0,.716-.5,1.144-1.56,1.144s-1.554-.429-1.554-1.144v-1.329c0-.716.5-1.144,1.554-1.144s1.56.429,1.56,1.144Zm-.716-1.227c0-.443-.143-.7-.844-.7s-.838.254-.838.7v1.125c0,.443.143.7.838.7s.844-.254.844-.7Z" transform="translate(-690.92 -709.084)"/><path class="c" d="M726.4,713.592c0,.388.191.613.736.613a2.348,2.348,0,0,0,.736-.116V711.18s.716,0,.716.388v3.179a1.262,1.262,0,0,0-.531-.127c-.328,0-.636.142-1.017.142-.661,0-1.356-.224-1.356-1.069V711.18s.715.006.715.388Z" transform="translate(-717.899 -709.319)"/><path class="c" d="M756.2,711.626v2.9s-.716,0-.716-.4v-3.168a1.044,1.044,0,0,0,.471.127c.292,0,.558-.142.947-.142.477,0,.858.177.858.592a.989.989,0,0,1-.254.578c0-.4-.334-.585-.73-.585a2.094,2.094,0,0,0-.576.09Z" transform="translate(-743.911 -709.119)"/><path class="c" d="M790.26,700.83h1.28c1.05,0,1.97.286,1.97,1.547v.127c0,1.227-.919,1.554-1.97,1.554H791v1.663s-.742,0-.742-.389Zm.742.572v2.079h.538c.722,0,1.227-.136,1.227-1.043,0-.846-.509-1.036-1.227-1.036Z" transform="translate(-774.268 -700.286)"/><path class="c" d="M822.375,711.626v2.9s-.715,0-.715-.4v-3.168a1.042,1.042,0,0,0,.47.127c.292,0,.558-.142.946-.142.478,0,.86.177.86.592a.991.991,0,0,1-.254.578c0-.4-.333-.585-.729-.585A2.11,2.11,0,0,0,822.375,711.626Z" transform="translate(-801.676 -709.119)"/><path class="c" d="M844.544,713.383c0,.716-.5,1.144-1.56,1.144s-1.554-.429-1.554-1.144v-1.329c0-.716.5-1.144,1.554-1.144s1.56.429,1.56,1.144Zm-.716-1.227c0-.443-.142-.7-.844-.7s-.838.254-.838.7v1.125c0,.443.142.7.838.7s.844-.254.844-.7Z" transform="translate(-818.932 -709.084)"/><path class="c" d="M872.35,697.694c0-.716.771-1.144,1.547-1.144.674,0,1.253.217,1.253.647a.637.637,0,0,1-.254.469c0-.368-.509-.538-.988-.538-.457,0-.844.254-.844.7v.763h1.254s-.008.572-.422.572h-.826v2.8s-.716,0-.716-.389Z" transform="translate(-845.921 -696.55)"/><path class="c" d="M893.324,713.758c0,.483-.6.769-1.329.769-.947,0-1.526-.429-1.526-1.144v-1.329c0-.716.5-1.144,1.416-1.144s1.39.429,1.39,1.076c0,.566-.361,1.063-1.4,1.063a1.575,1.575,0,0,1-.7-.142v.375c0,.443.231.667.8.667.654,0,1.13-.266,1.137-.709A.942.942,0,0,1,893.324,713.758Zm-2.134-1.383a2.535,2.535,0,0,0,.607.1c.572,0,.771-.177.771-.484s-.185-.531-.689-.531c-.544,0-.688.254-.688.7Z" transform="translate(-861.737 -709.084)"/><path class="c" d="M918.63,710.8c.777,0,1.316.211,1.316.675a1.018,1.018,0,0,1-.233.585c0-.443-.422-.668-1.049-.668-.538,0-.736.15-.736.491,0,.716,2.188-.127,2.188,1.479,0,.654-.484,1.069-1.486,1.069-.8,0-1.39-.231-1.39-.708a.95.95,0,0,1,.266-.593c.014.538.531.722,1.124.722.43,0,.757-.17.757-.525,0-.852-2.187.034-2.187-1.424C917.2,711.175,917.7,710.8,918.63,710.8Z" transform="translate(-885.068 -708.988)"/><path class="c" d="M945.364,710.8c.777,0,1.315.211,1.315.675a1.017,1.017,0,0,1-.231.585c0-.443-.422-.668-1.049-.668-.539,0-.736.15-.736.491,0,.716,2.187-.127,2.187,1.479,0,.654-.483,1.069-1.485,1.069-.8,0-1.39-.231-1.39-.708a.95.95,0,0,1,.266-.593c.014.538.531.722,1.124.722.43,0,.763-.17.763-.525,0-.852-2.187.034-2.187-1.424C943.933,711.175,944.43,710.8,945.364,710.8Z" transform="translate(-908.408 -708.988)"/><path class="c" d="M972.128,701.26h.509c.081,0,.2.089.2.17v.518h-.509a.2.2,0,0,1-.2-.163Zm0,1.261c.027,0,.716,0,.716.388v3.162s-.716,0-.716-.389Z" transform="translate(-933.005 -700.661)"/><path class="c" d="M987.344,713.383c0,.716-.5,1.144-1.56,1.144s-1.554-.429-1.554-1.144v-1.329c0-.716.5-1.144,1.554-1.144s1.56.429,1.56,1.144Zm-.715-1.227c0-.443-.144-.7-.846-.7s-.838.254-.838.7v1.125c0,.443.144.7.838.7s.846-.254.846-.7Z" transform="translate(-943.575 -709.084)"/><path class="c" d="M1017.338,712.055c0-.382-.2-.613-.744-.613a2.268,2.268,0,0,0-.729.116v2.911s-.716,0-.716-.389v-3.184a1.2,1.2,0,0,0,.525.127c.335,0,.636-.142,1.017-.142.661,0,1.363.225,1.363,1.069v2.519s-.715-.014-.715-.389Z" transform="translate(-970.564 -709.058)"/><path class="c" d="M1046.083,712.007c0-.3-.142-.531-.722-.531-.605,0-1.076.224-1.076.749a.992.992,0,0,1-.225-.58c0-.53.7-.735,1.3-.735.934,0,1.438.416,1.438,1.13v2.46a1.181,1.181,0,0,0-.491-.1c-.327,0-.636.127-1.017.127-.66,0-1.321-.254-1.321-1.035C1043.965,712.193,1045.825,712.6,1046.083,712.007Zm.021.613c-.144.408-1.432.163-1.432.872,0,.3.225.508.716.508a1.611,1.611,0,0,0,.716-.157Z" transform="translate(-995.719 -709.084)"/><path class="c" d="M1072.6,698.21c.041,0,.715,0,.715.381v3.584c0,.388.062,1.017.484,1.017a.6.6,0,0,1-.484.219c-.491,0-.715-.471-.715-1.017Z" transform="translate(-1020.709 -697.999)"/><path class="c" d="M1101,700.83h1.28c1.049,0,1.97.286,1.97,1.547v.127c0,1.227-.921,1.554-1.97,1.554h-.538v1.663s-.743,0-.743-.389Zm.743.572v2.079h.538c.722,0,1.227-.136,1.227-1.043,0-.846-.509-1.036-1.227-1.036Z" transform="translate(-1045.498 -700.286)"/><path class="c" d="M1133.086,703.5s-.716,0-.716-.389v-4.8c.067,0,.716-.013.716.456v.947a1.9,1.9,0,0,1-.062.519,1.3,1.3,0,0,1,.968-.32,1.151,1.151,0,0,1,1.281,1.124v2.46s-.716-.007-.716-.389v-1.969a.607.607,0,0,0-.654-.682c-.409,0-.818.254-.818.614Z" transform="translate(-1072.88 -698.086)"/><path class="c" d="M1164.774,713.383c0,.716-.5,1.144-1.561,1.144s-1.553-.429-1.553-1.144v-1.329c0-.716.5-1.144,1.553-1.144s1.561.429,1.561,1.144Zm-.716-1.227c0-.443-.144-.7-.845-.7s-.838.254-.838.7v1.125c0,.443.144.7.838.7s.845-.254.845-.7Z" transform="translate(-1098.445 -709.084)"/><path class="c" d="M1192.535,705.76c.158,0,.716.014.716.607v.254h1.4s0,.572-.422.572h-.982v1.5c0,.471.15.763.675.763.436,0,.838-.211.838-.716a.9.9,0,0,1,.238.553c0,.443-.476.735-1.164.735-.811,0-1.3-.422-1.3-1.144Z" transform="translate(-1125.39 -704.589)"/><path class="c" d="M1218.193,713.383c0,.716-.5,1.144-1.56,1.144s-1.554-.429-1.554-1.144v-1.329c0-.716.5-1.144,1.554-1.144s1.56.429,1.56,1.144Zm-.716-1.227c0-.443-.142-.7-.844-.7s-.838.254-.838.7v1.125c0,.443.142.7.838.7s.844-.254.844-.7Z" transform="translate(-1145.073 -709.084)"/><path class="c" d="M1247.394,712.276c0,.722-.5,1.152-1.417,1.152a1.738,1.738,0,0,1-.872-.2,1.953,1.953,0,0,0-.047.314c0,.341.286.381.8.381h.225c.681,0,1.438.014,1.438.933,0,.7-.484,1.186-1.547,1.186-.851,0-1.437-.266-1.437-.73a.926.926,0,0,1,.2-.531c.034.508.531.716,1.2.716s.872-.254.872-.606c0-.374-.308-.416-.75-.416h-.334c-.654,0-1.272-.067-1.272-.769a1.066,1.066,0,0,1,.341-.7,1.13,1.13,0,0,1-.254-.736v-.355c0-.769.636-1.055,1.288-1.055.382,0,.7.136,1.018.136a1.326,1.326,0,0,0,.531-.127Zm-.708-.736a1.886,1.886,0,0,0-.716-.143c-.538,0-.7.183-.7.627v.15c0,.449.136.708.709.708s.709-.254.709-.708Z" transform="translate(-1170.717 -709.04)"/><path class="c" d="M1274.146,711.626v2.9s-.716,0-.716-.4v-3.168a1.048,1.048,0,0,0,.47.127c.294,0,.56-.142.947-.142.477,0,.858.177.858.592a.99.99,0,0,1-.254.578c0-.4-.335-.585-.729-.585A2.1,2.1,0,0,0,1274.146,711.626Z" transform="translate(-1196.004 -709.119)"/><path class="c" d="M1294.874,712.007c0-.3-.142-.531-.723-.531-.606,0-1.076.224-1.076.749a1,1,0,0,1-.225-.58c0-.53.7-.735,1.3-.735.934,0,1.438.416,1.438,1.13v2.46a1.184,1.184,0,0,0-.491-.1c-.326,0-.636.127-1.017.127-.661,0-1.323-.254-1.323-1.035C1292.754,712.193,1294.615,712.6,1294.874,712.007Zm.021.613c-.143.408-1.431.163-1.431.872,0,.3.225.508.714.508a1.607,1.607,0,0,0,.716-.157Z" transform="translate(-1212.876 -709.084)"/><path class="c" d="M1322.376,715.627v.455c-.02,0-.716.02-.716-.464v-4.749a1.05,1.05,0,0,0,.45.108c.321,0,.62-.127.968-.127.954,0,1.485.408,1.485,1.13v1.363a1.17,1.17,0,0,1-1.281,1.124,1.287,1.287,0,0,1-.966-.32,1.836,1.836,0,0,1,.061.509Zm0-2.31c0,.361.408.614.818.614a.6.6,0,0,0,.653-.681v-1.158c0-.464-.183-.689-.818-.689a1.639,1.639,0,0,0-.653.117Z" transform="translate(-1238.102 -709.031)"/><path class="c" d="M1351.636,703.5s-.716,0-.716-.389v-4.8c.067,0,.716-.013.716.456v.947a1.893,1.893,0,0,1-.062.519,1.3,1.3,0,0,1,.968-.32,1.15,1.15,0,0,1,1.281,1.124v2.46s-.716-.007-.716-.389v-1.969a.607.607,0,0,0-.654-.682c-.409,0-.818.254-.818.614Z" transform="translate(-1263.641 -698.086)"/><path class="c" d="M1382.984,713.758c0,.483-.6.769-1.329.769-.947,0-1.526-.429-1.526-1.144v-1.329c0-.716.5-1.144,1.416-1.144s1.391.429,1.391,1.076c0,.566-.363,1.063-1.4,1.063a1.574,1.574,0,0,1-.7-.142v.375c0,.443.232.667.8.667.654,0,1.13-.266,1.138-.709A.953.953,0,0,1,1382.984,713.758Zm-2.134-1.383a2.533,2.533,0,0,0,.607.1c.572,0,.771-.177.771-.484s-.184-.531-.688-.531c-.545,0-.689.254-.689.7Z" transform="translate(-1289.137 -709.084)"/><path class="c" d="M1409.185,711.626v2.9s-.716,0-.716-.4v-3.168a1.044,1.044,0,0,0,.471.127c.292,0,.558-.142.947-.142.477,0,.858.177.858.592a.99.99,0,0,1-.254.578c0-.4-.334-.585-.73-.585a2.1,2.1,0,0,0-.576.09Z" transform="translate(-1313.874 -709.119)"/></g><path class="d" d="M1249.594,487.06a7.534,7.534,0,0,0-5.75,2.289l-.075.084,2.905,2.693a2.931,2.931,0,0,1,1.038-1.091,4,4,0,0,1,3.763,0,2.959,2.959,0,0,1,1.145,1.28,4.457,4.457,0,0,1,.418,1.814h-4.208l3.111,2.884h5.558V495.13a8.181,8.181,0,0,0-2.108-5.817A7.533,7.533,0,0,0,1249.594,487.06Z" transform="translate(-1112.471 -480.822)"/><path class="e" d="M226.957,440.094A8.543,8.543,0,0,0,220.891,438H211.13v23.587l4.917-3.65v-5.328h4.844a8.525,8.525,0,0,0,6.048-2.1,7.137,7.137,0,0,0,.018-10.411Zm-2.614,5.3a3.3,3.3,0,0,1-3.418,3.179h-2.348l-2.543,2.416v-8.9h4.889a3.571,3.571,0,0,1,2.043.636c.033.024.067.046.1.071s.076.061.114.092.076.058.113.092l.029.029c.034.032.066.066.1.1s.08.078.117.12a3.031,3.031,0,0,1,.8,2.043Z" transform="translate(-211.13 -438)"/><path class="f" d="M216.047,480.692,211.13,464.07v20.273Z" transform="translate(-211.13 -460.755)"/><path class="g" d="M244.624,525.035l-4.172-3.9h0l-.075.071-4.187,3.968h6.575A12.574,12.574,0,0,0,244.624,525.035Z" transform="translate(-233.004 -510.56)"/><path class="a" d="M226.957,440.094A8.543,8.543,0,0,0,220.891,438H211.13v3.306l4.907,4.636v-3.858h4.889a3.572,3.572,0,0,1,2.043.636c.033.024.067.046.1.071s.076.061.114.091.076.059.113.092l.029.029c.034.032.066.066.1.1s.081.078.117.12a3.031,3.031,0,0,1,.8,2.043v.127a3.3,3.3,0,0,1-3.418,3.179h-2.348l4.173,3.9a8.085,8.085,0,0,0,4.2-1.969,7.132,7.132,0,0,0,.011-10.412Z" transform="translate(-211.13 -438)"/></g></svg>