<svg xmlns="http://www.w3.org/2000/svg" width="52.213" height="30.433" viewBox="0 0 52.213 30.433"><defs><style>.a{fill:#29c2c2;}</style></defs><g transform="translate(0 -106.792)"><g transform="translate(16.438 111.415)"><g transform="translate(0 0)"><path class="a" d="M178.923,152.127h-16.2a1.529,1.529,0,1,0,0,3.058h16.2a1.529,1.529,0,0,0,0-3.058Z" transform="translate(-161.191 -152.127)"/></g></g><g transform="translate(22.209 106.792)"><g transform="translate(0 0)"><path class="a" d="M223.967,106.792h-4.662a1.529,1.529,0,0,0,0,3.058h4.662a1.529,1.529,0,0,0,0-3.058Z" transform="translate(-217.776 -106.792)"/></g></g><g transform="translate(6.677 117.195)"><g transform="translate(0 0)"><path class="a" d="M101.161,208.806H68.568a3.1,3.1,0,0,0-3.1,3.1v9.624a2.567,2.567,0,0,0,2.564,2.564h33.124a3.1,3.1,0,0,0,3.1-3.1V211.9A3.1,3.1,0,0,0,101.161,208.806Z" transform="translate(-65.473 -208.806)"/></g></g><g transform="translate(0 125.089)"><g transform="translate(0 0)"><path class="a" d="M12.291,296.8c0-.034,0-.068-.006-.1,0-.018,0-.035,0-.053s-.008-.059-.013-.088-.007-.044-.012-.066-.011-.045-.017-.068-.015-.056-.024-.083-.013-.035-.019-.052-.023-.062-.037-.092l-.006-.015-.19-.493H8.9a4.317,4.317,0,0,1-4.317-4.317v-5.159h-2.3a2.284,2.284,0,0,0-1.922,1.014A2.231,2.231,0,0,0,.385,289.7l1.79,2.647-1.71,2.439a2.286,2.286,0,0,0-.214,2.3,2.228,2.228,0,0,0,2.013,1.265h8.5a1.524,1.524,0,0,0,.23-.02c.028,0,.056-.008.083-.013l.047-.012c.037-.009.074-.018.11-.03l.04-.015c.038-.013.075-.027.111-.044l.014-.006.034-.018c.029-.014.057-.028.085-.044l.057-.035c.022-.014.044-.028.066-.043s.043-.032.064-.048l.05-.041c.022-.019.044-.039.065-.059l.042-.042c.02-.021.04-.043.059-.065l.04-.048c.017-.021.033-.043.049-.065s.027-.039.04-.058.025-.04.037-.061.026-.047.039-.07.019-.038.027-.057.024-.053.034-.08.014-.038.021-.056.018-.055.026-.083.011-.042.016-.064.012-.051.017-.077.009-.052.012-.079.006-.043.008-.065,0-.065,0-.1c0-.013,0-.025,0-.037S12.292,296.81,12.291,296.8Z" transform="translate(0 -286.215)"/></g></g><g transform="translate(39.921 125.089)"><g transform="translate(0 0)"><path class="a" d="M401.581,292.35l1.79-2.647a2.231,2.231,0,0,0,.021-2.472,2.284,2.284,0,0,0-1.922-1.014h-2.3v4.811a4.665,4.665,0,0,1-4.665,4.665h-2.711l-.19.493-.006.015c-.013.03-.025.061-.037.092s-.013.035-.019.052-.016.055-.024.083-.012.045-.017.068-.008.044-.012.066-.01.059-.013.088,0,.035,0,.053c0,.034,0,.068-.005.1,0,.005,0,.01,0,.016s0,.025,0,.037c0,.032,0,.065,0,.1s0,.044.008.065.007.053.012.079.011.052.017.077.01.042.016.064.017.055.026.083.013.038.021.056.022.054.034.08.018.038.027.057.025.047.039.07.024.041.037.061.026.039.04.058.032.044.049.065l.04.048c.019.022.039.044.059.065l.042.042c.021.02.042.04.065.059l.05.041c.021.016.042.033.064.048s.043.029.066.043l.057.035c.028.016.056.03.085.044l.034.018.014.006c.036.016.073.03.111.044l.04.015c.036.012.073.021.11.03l.047.012c.027.006.055.009.083.013a1.515,1.515,0,0,0,.23.02h8.5a2.228,2.228,0,0,0,2.013-1.265,2.286,2.286,0,0,0-.214-2.3Z" transform="translate(-391.463 -286.217)"/></g></g></g></svg>