<svg xmlns="http://www.w3.org/2000/svg" xmlns:xlink="http://www.w3.org/1999/xlink" width="80.322" height="14.874" viewBox="0 0 80.322 14.874"><defs><style>.a{fill:#fff;}.b{fill:#2e3192;}.c{fill:url(#a);}.d{fill:url(#b);}.e{fill:url(#c);}.f{fill:#e22b26;}</style><linearGradient id="a" y1="0.5" x2="1" y2="0.5" gradientUnits="objectBoundingBox"><stop offset="0" stop-color="#e11b22"/><stop offset="1" stop-color="#f6851f"/></linearGradient><linearGradient id="b" x1="-0.289" y1="0.646" x2="0.547" y2="0.223" gradientUnits="objectBoundingBox"><stop offset="0" stop-color="#e11b22"/><stop offset="1" stop-color="#fec00f"/></linearGradient><linearGradient id="c" x1="0.005" y1="-0.005" x2="0.488" y2="0.889" gradientUnits="objectBoundingBox"><stop offset="0" stop-color="#f37321"/><stop offset="1" stop-color="#e11b22"/></linearGradient></defs><g transform="translate(0)"><g transform="translate(9.737 0.122)"><path class="a" d="M603.962,487.157v.8a2.86,2.86,0,0,0-.977-.69,3.35,3.35,0,0,0-1.238-.2,2.95,2.95,0,0,0-2.077.649,2.728,2.728,0,0,0-.863,1.4,12.811,12.811,0,0,0,0,4.114,2.738,2.738,0,0,0,.863,1.388,2.933,2.933,0,0,0,2.059.649,3.438,3.438,0,0,0,1.213-.191,2.594,2.594,0,0,0,.951-.649v.854a1.815,1.815,0,0,1-.446,1.249,1.76,1.76,0,0,1-1.387.5,2.56,2.56,0,0,1-1.783-.649l-1.413,1.331a3.909,3.909,0,0,0,1.448.868,6.305,6.305,0,0,0,1.853.237,4.18,4.18,0,0,0,2.905-.982,3.236,3.236,0,0,0,1.09-2.523v-8.15Zm-.085,4.43v.3a1.374,1.374,0,0,1-.211.728c-.022.054-.045.106-.071.156a1.216,1.216,0,0,1-1.2.585H602.3a1.531,1.531,0,0,1-1.579-1.469v-1.457a1.531,1.531,0,0,1,1.579-1.468h.094a1.218,1.218,0,0,1,1.2.584c.026.05.049.1.071.157a1.379,1.379,0,0,1,.21.728v.292c.01.137.015.28.015.43S603.887,491.449,603.877,491.587Z" transform="translate(-583.703 -484.058)"/><path class="a" d="M368.988,489.489a2.123,2.123,0,0,0-.541-.382,1.569,1.569,0,0,0-.663-.122,1.475,1.475,0,0,0-1.03.4,1.493,1.493,0,0,0-.436,1.163v5.108H364.05v-8.468h2.216V488a2.651,2.651,0,0,1,.96-.641,3.341,3.341,0,0,1,1.326-.268,3.489,3.489,0,0,1,1.178.179,2.853,2.853,0,0,1,.968.616Z" transform="translate(-364.05 -484.084)"/><path class="a" d="M1100.217,451.481v-5.173a1.39,1.39,0,0,0-.436-1.138,1.6,1.6,0,0,0-1.047-.358,1.562,1.562,0,0,0-1.038.358,1.4,1.4,0,0,0-.427,1.138v5.173H1095V439.91h2.269v3.879a3.064,3.064,0,0,1,2.181-.877,2.924,2.924,0,0,1,2.252.846,3.157,3.157,0,0,1,.785,2.243v5.48Z" transform="translate(-1048.458 -439.91)"/><path class="a" d="M1373.168,489.488a2.136,2.136,0,0,0-.541-.382,1.569,1.569,0,0,0-.663-.122,1.473,1.473,0,0,0-1.03.4,1.5,1.5,0,0,0-.437,1.163v5.108h-2.268v-8.468h2.214V488a2.659,2.659,0,0,1,.96-.641,3.339,3.339,0,0,1,1.326-.268,3.488,3.488,0,0,1,1.178.179,2.864,2.864,0,0,1,.969.616Z" transform="translate(-1304.291 -484.084)"/><path class="a" d="M1235.283,491.1a4.1,4.1,0,0,0-1.056-2.913,4.247,4.247,0,0,0-5.785.018,4.44,4.44,0,0,0-1.082,3.173,4.165,4.165,0,0,0,1.17,3.36,4.583,4.583,0,0,0,3.036.974,5.075,5.075,0,0,0,1.946-.318,5.212,5.212,0,0,0,1.51-1.016l-1.38-1.249a3.038,3.038,0,0,1-.916.617,3.123,3.123,0,0,1-1.146.178,1.985,1.985,0,0,1-1.464-.519,1.845,1.845,0,0,1-.523-1.364h5.689Zm-5.68.179V490.6h-.009a2.093,2.093,0,0,1,.2-.877,1.5,1.5,0,0,1,.584-.673,2,2,0,0,1,1.885,0,1.48,1.48,0,0,1,.573.641,2.234,2.234,0,0,1,.21.909h-2.316Z" transform="translate(-1172.391 -484.058)"/><path class="a" d="M473.757,489.431a2.856,2.856,0,0,0-.75-1.273,3.775,3.775,0,0,0-1.239-.8,4.422,4.422,0,0,0-1.649-.284,4.319,4.319,0,0,0-1.649.284,3.784,3.784,0,0,0-1.23.82,2.87,2.87,0,0,0-.751,1.247,9.193,9.193,0,0,0,.009,3.938,2.848,2.848,0,0,0,.75,1.273,3.788,3.788,0,0,0,1.231.8,4.922,4.922,0,0,0,3.3,0,3.481,3.481,0,0,0,1.174-.755,3.034,3.034,0,0,0,.82-1.315,7.384,7.384,0,0,0,.209-1.98A7.288,7.288,0,0,0,473.757,489.431Zm-2.05,2.919a1.42,1.42,0,0,1-.52,1.082c-.017.017-.03.036-.048.052a1.327,1.327,0,0,1-.8.318,1.727,1.727,0,0,1-.208.015H470.1a1.436,1.436,0,0,1-.158-.01,1.31,1.31,0,0,1-.8-.3c-.024-.022-.043-.046-.064-.069a1.421,1.421,0,0,1-.519-1.082V490.44a1.423,1.423,0,0,1,.519-1.082c.017-.017.031-.036.048-.052a1.318,1.318,0,0,1,.814-.318,1.647,1.647,0,0,1,.169-.012h.056a1.487,1.487,0,0,1,1.028.372c.013.011.022.024.034.036a1.416,1.416,0,0,1,.49,1.059Z" transform="translate(-459.771 -484.067)"/><path class="a" d="M965.37,489.008a3.073,3.073,0,0,0-.873-1.355,2.918,2.918,0,0,0-2.032-.593,3.035,3.035,0,0,0-2.269.891v-.794H958v11.572h2.267v-3.862a2.582,2.582,0,0,0,.96.658,3.619,3.619,0,0,0,1.239.187,3.125,3.125,0,0,0,2.216-.764,2.516,2.516,0,0,0,.764-1.436,12.133,12.133,0,0,0,.157-2.134A8.633,8.633,0,0,0,965.37,489.008Zm-1.895,3.333a1.531,1.531,0,0,1-1.579,1.469H961.8a1.24,1.24,0,0,1-1.247-.6,2.115,2.115,0,0,1-.109-.288,1.373,1.373,0,0,1-.127-.58v-.064a7.467,7.467,0,0,1-.049-.9,7.149,7.149,0,0,1,.049-.88v-.065a1.367,1.367,0,0,1,.144-.607,2.179,2.179,0,0,1,.1-.26,1.242,1.242,0,0,1,1.239-.6h.093a1.667,1.667,0,0,1,.516.083l.017.006a1.481,1.481,0,0,1,1.043,1.38Z" transform="translate(-920.181 -484.058)"/><path class="a" d="M823.217,488.792c-.211-.052-1.3-.068-1.333-.072l-1.868,1.68c.585,0,1.033,0,1.464,0a2.081,2.081,0,0,1,1.3.318,1.226,1.226,0,0,1,.392,1.012v.422h-2.147a3.45,3.45,0,0,0-2.32.681,2.235,2.235,0,0,0-.786,1.769,2.524,2.524,0,0,0,.777,1.91,3.118,3.118,0,0,0,2.14.734h4.6v-5.641A2.641,2.641,0,0,0,823.217,488.792Zm.047,7.366-.877-.627-1.337,0a1,1,0,0,1-1.034-.964h0a1,1,0,0,1,1.037-.965h2.211Z" transform="translate(-789.021 -485.612)"/><path class="a" d="M744.728,489.07a1.924,1.924,0,0,1,.406.263l1.773-1.55a2.807,2.807,0,0,0-.9-.555,3.49,3.49,0,0,0-1.178-.179,3.337,3.337,0,0,0-1.326.268,2.639,2.639,0,0,0-.96.641v-.812H740.33v8.472H742.6V490.51a1.5,1.5,0,0,1,.436-1.163,1.474,1.474,0,0,1,1.028-.4A1.575,1.575,0,0,1,744.728,489.07Z" transform="translate(-716.371 -484.047)"/></g><path class="b" d="M823.712,504.93l-.032.031.038.034Z" transform="translate(-784.677 -500.668)"/><path class="c" d="M1246.687,487.06a3.773,3.773,0,0,0-2.879,1.146l-.038.042,1.455,1.349a1.468,1.468,0,0,1,.52-.546,2,2,0,0,1,1.885,0,1.481,1.481,0,0,1,.573.641,2.234,2.234,0,0,1,.209.909H1246.3l1.558,1.444h2.783V491.1a4.1,4.1,0,0,0-1.056-2.913A3.772,3.772,0,0,0,1246.687,487.06Z" transform="translate(-1178.019 -483.936)"/><path class="d" d="M219.056,439.049A4.278,4.278,0,0,0,216.018,438H211.13v11.812l2.462-1.828v-2.668h2.426a4.269,4.269,0,0,0,3.029-1.054,3.574,3.574,0,0,0,.009-5.213Zm-1.309,2.653a1.653,1.653,0,0,1-1.712,1.592h-1.176l-1.273,1.21v-4.457h2.448a1.789,1.789,0,0,1,1.023.318l.05.036.057.046c.019.015.038.029.057.046l.015.015c.017.016.033.033.05.05s.04.039.059.06a1.518,1.518,0,0,1,.4,1.023Z" transform="translate(-211.13 -438)"/><path class="e" d="M213.592,472.394l-2.462-8.324v10.152Z" transform="translate(-211.13 -462.41)"/><path class="f" d="M240.413,523.085l-2.089-1.955h0l-.038.036-2.1,1.987h3.292A6.3,6.3,0,0,0,240.413,523.085Z" transform="translate(-234.594 -515.837)"/><path class="a" d="M219.056,439.049A4.278,4.278,0,0,0,216.018,438H211.13v1.655l2.457,2.321v-1.932h2.448a1.789,1.789,0,0,1,1.023.318c.017.012.034.023.05.036l.057.046c.019.015.038.029.057.046l.015.015c.017.016.033.033.05.05s.041.039.059.06a1.518,1.518,0,0,1,.4,1.023v.064a1.653,1.653,0,0,1-1.712,1.592h-1.176l2.09,1.955a4.049,4.049,0,0,0,2.1-.986,3.571,3.571,0,0,0,.006-5.214Z" transform="translate(-211.13 -438)"/></g></svg>