<svg xmlns="http://www.w3.org/2000/svg" width="39.054" height="39.087" viewBox="0 0 39.054 39.087"><defs><style>.a{fill:#ff8080;}</style></defs><path class="a" d="M38.733,13.376,25.67,11.517,19.863,0,14.057,11.517.993,13.376,10.449,22.4,8.225,35.091,19.863,29.1,31.5,35.091,29.278,22.4ZM19.863,25.665,12.3,29.56l1.444-8.243-6.082-5.8,8.408-1.2,3.8-7.53,3.8,7.53,8.408,1.2-6.082,5.8L27.43,29.56ZM29.938,8.706,27.519,6.839,30.88,2.485,33.3,4.352Zm9.449,15.576L38.362,27.16l-5.487-1.953L33.9,22.329ZM9.887,8.719,6.45,4.365l2.4-1.893,3.437,4.354ZM5.82,22.226l1.06,2.865L1.393,27.12.333,24.255Zm12.516,10.98h3.055v5.881H18.336Zm0,0" transform="translate(-0.333 0)"/></svg>