<svg xmlns="http://www.w3.org/2000/svg" width="49.349" height="47.919" viewBox="0 0 49.349 47.919"><defs><style>.a{fill:#847deb;}.b{fill:#fdfdfd;font-size:14px;font-family:Roboto-Bold, Roboto;font-weight:700;letter-spacing:0.06em;}.c{fill:none;stroke:#fdfdfd;stroke-width:10px;}</style></defs><g transform="translate(6.126 1.649)"><g transform="translate(0 -1.649)"><path class="a" d="M22.392,246.253a5.467,5.467,0,0,1-3.431-1.279l-6.339-5.583a2.791,2.791,0,0,0-3.606-.174L0,245.846v4.3a2.094,2.094,0,0,0,1.973,2.208c.059,0,.119,0,.179,0H34.081a2.449,2.449,0,0,0,2.559-2.21V238.868L25.184,245.5A5.292,5.292,0,0,1,22.392,246.253Z" transform="translate(0 -215.015)"/><circle class="a" cx="2.559" cy="2.559" r="2.559" transform="translate(19.368 14.838)"/><path class="a" d="M92.859,30.948a2.152,2.152,0,0,0-1.57-.872L59.6,26.412a2.316,2.316,0,0,0-2.617,1.977l-.523,4.536h27.8a5,5,0,0,1,4.885,4.827V58.281c0-.116.523-.233.756-.465a1.977,1.977,0,0,0,.756-1.57l2.733-23.61A2.268,2.268,0,0,0,92.859,30.948Z" transform="translate(-50.171 -26.403)"/><path class="a" d="M34.108,105.9H2.182A2.348,2.348,0,0,0,.03,108.4v16.574l7.676-5.583a5.118,5.118,0,0,1,6.455.291l6.4,5.583a2.966,2.966,0,0,0,3.431.291l12.677-7.385V108.4A2.675,2.675,0,0,0,34.108,105.9ZM21.954,119.332a4.885,4.885,0,1,1,4.885-4.885A4.885,4.885,0,0,1,21.954,119.332Z" transform="translate(-0.027 -97.05)"/></g><rect class="a" width="38" height="30" rx="2" transform="translate(-0.287 6.351)"/><text class="b" transform="translate(6.713 28.352)"><tspan x="0" y="0">GIF</tspan></text><line class="c" x2="17" y2="9" transform="translate(-3.787 32.851)"/></g></svg>