<svg xmlns="http://www.w3.org/2000/svg" width="24.067" height="37.982" viewBox="0 0 24.067 37.982">
  <path id="Path_1152" data-name="Path 1152" d="M1705.172,420.3a19.193,19.193,0,0,1,15.821-3.839c0,.513.417,1.45-.271,1.646a17.486,17.486,0,0,0-10.488,24.663,17.649,17.649,0,0,0,11.916,9.194c-.022.482-.044.968-.072,1.453a19.133,19.133,0,0,1-15.22-2.33,18.994,18.994,0,0,1-1.686-30.785m-4.272,8.232a17.472,17.472,0,0,0,17.616,23.963,20.959,20.959,0,0,1-7.2-5.348,19.039,19.039,0,0,1,6.322-29.488A17.452,17.452,0,0,0,1700.9,428.532Z" transform="translate(-1698.082 -416.082)" fill="#383838"/>
</svg>
