<svg xmlns="http://www.w3.org/2000/svg" width="8.175" height="9.301" viewBox="0 0 8.175 9.301"><defs><style>.a{fill:#8d8d8d;}</style></defs><path class="a" d="M25.162,4.045h.962V9.336a.16.16,0,0,0,.16.16h1.6a.16.16,0,0,0,.16-.16V4.045h.962a.158.158,0,0,0,.13-.25L27.221,1.064a.161.161,0,0,0-.26,0l-.5.709L25.35,3.345l-.318.449a.158.158,0,0,0,.13.25Z" transform="translate(-20.995 -0.997)"/><path class="a" d="M.356,12.151l1.111,1.573.5.709a.161.161,0,0,0,.26,0L4.147,11.7a.158.158,0,0,0-.13-.25H3.055V6.16A.16.16,0,0,0,2.895,6h-1.6a.16.16,0,0,0-.16.16v5.291H.169a.158.158,0,0,0-.13.25Z" transform="translate(-0.009 -5.198)"/></svg>