<svg xmlns="http://www.w3.org/2000/svg" width="12.536" height="12.034" viewBox="0 0 12.536 12.034"><defs><style>.a{fill:#8d8d8d;}</style></defs><g transform="translate(0 -10.144)"><g transform="translate(0 9.144)"><path class="a" d="M3.146,45.683H.572a.55.55,0,0,0-.4.17.55.55,0,0,0-.17.4v5.721a.55.55,0,0,0,.17.4.55.55,0,0,0,.4.17H3.146a.58.58,0,0,0,.572-.572V46.255a.58.58,0,0,0-.572-.572ZM2.118,47.8a.567.567,0,0,1-.809,0,.57.57,0,0,1,.407-.974.557.557,0,0,1,.4.165.567.567,0,0,1,0,.809Z" transform="translate(0 -44.539)"/><path class="a" d="M144.869,14.495a1.977,1.977,0,0,0,.11-.6,1.7,1.7,0,0,0-.317-1.073,1.709,1.709,0,0,0,0-.917,1.549,1.549,0,0,0-.4-.736,1.97,1.97,0,0,0-.361-1.418,1.775,1.775,0,0,0-1.45-.611h-.95a5.15,5.15,0,0,0-1.06.121,8.851,8.851,0,0,0-.894.227q-.32.106-.887.309a5.133,5.133,0,0,1-1.163.345.474.474,0,0,0-.331.153.484.484,0,0,0-.14.349V15.67a.489.489,0,0,0,.133.341.472.472,0,0,0,.317.161q.177.016.559.462t.743.948a11.468,11.468,0,0,0,.744.94,1.21,1.21,0,0,1,.228.376,2.64,2.64,0,0,1,.129.38q.033.145.1.474.051.305.092.478a2.421,2.421,0,0,0,.143.407,1.367,1.367,0,0,0,.25.392.44.44,0,0,0,.331.149,2.074,2.074,0,0,0,.607-.082,1.566,1.566,0,0,0,.442-.2,1.071,1.071,0,0,0,.295-.317,1.853,1.853,0,0,0,.177-.353,2.054,2.054,0,0,0,.088-.392q.033-.235.037-.353t0-.306a2.522,2.522,0,0,0-.074-.6,3.237,3.237,0,0,0-.14-.458q-.066-.157-.2-.446-.022-.047-.074-.141a1.371,1.371,0,0,1-.081-.172q-.03-.078-.059-.188h2.039a1.308,1.308,0,0,0,.99-.447,1.528,1.528,0,0,0,.423-1.058A1.747,1.747,0,0,0,144.869,14.495Z" transform="translate(-132.739 -8.144)"/></g></g></svg>