<svg xmlns="http://www.w3.org/2000/svg" width="13.441" height="17.277" viewBox="0 0 13.441 17.277"><defs><style>.a{fill:#8d8d8d;}</style></defs><g transform="translate(0)"><path class="a" d="M126.508,1.043H129.4v.486h1.043V.975A.976.976,0,0,0,129.464,0h-3.025a.976.976,0,0,0-.974.975v.554h1.043Zm0,0" transform="translate(-121.231 0)"/><path class="a" d="M50.739,167.75H40.95a.459.459,0,0,0-.458.5l.818,10.12a1.087,1.087,0,0,0,1.083,1h6.9a1.087,1.087,0,0,0,1.083-1l.818-10.12a.459.459,0,0,0-.458-.5ZM43.32,178.287h-.033a.521.521,0,0,1-.52-.489l-.513-8.308a.521.521,0,0,1,1.041-.064l.513,8.308A.521.521,0,0,1,43.32,178.287Zm3.052-.52a.521.521,0,0,1-1.043,0v-8.308a.521.521,0,0,1,1.043,0Zm3.063-8.278-.49,8.308a.521.521,0,0,1-.52.491h-.031a.521.521,0,0,1-.49-.551l.49-8.308a.521.521,0,0,1,1.041.061Zm0,0" transform="translate(-39.124 -162.089)"/><path class="a" d="M13.419,77.691l-.342-1.027a.663.663,0,0,0-.629-.453H.994a.663.663,0,0,0-.629.453L.023,77.691a.431.431,0,0,0,.408.566h12.58a.425.425,0,0,0,.228-.066.43.43,0,0,0,.18-.5Zm0,0" transform="translate(0 -73.64)"/></g></svg>